<svg id="Group_42" data-name="Group 42" xmlns="http://www.w3.org/2000/svg" xmlns:xlink="http://www.w3.org/1999/xlink" width="327.198" height="267" viewBox="0 0 327.198 267">
  <defs>
    <clipPath id="clip-path">
      <rect id="Rectangle_19" data-name="Rectangle 19" width="327.198" height="267" fill="none"/>
    </clipPath>
  </defs>
  <g id="Group_41" data-name="Group 41" clip-path="url(#clip-path)">
    <path id="Path_24" data-name="Path 24" d="M152.372,142.675c-.08-1.02,1.169-1.346,1.809-1.781,1.106-1-.6-2.739-1.6-3.316-.041-.028-.084.039-.127.055l5.007,5.072-2.488.029-2.545-2.508c.027,1.25.027,3.767,0,5.016l-2.547-2.508-2.489-.029,5.006,5.071c-.042.016-.086.083-.128.055-1.011-.577-2.738-2.322-1.653-3.347.625-.451,1.856-.793,1.749-1.809" transform="translate(11.186 10.44)" fill="#efd2d4"/>
    <path id="Path_25" data-name="Path 25" d="M230.246,84.676c-.3-10.439-1.206-20.863-1.039-31.4.017-10.506,1.343-23.523,12.194-28.91l1.029,3.521a108.855,108.855,0,0,0-28.774,8.973c-27.59,13.336-48.726,37.532-60.829,65.539l-.021.072-.379.794c-.108.343-.7.188-.591-.178.147-.587.266-1.231.393-1.831,6.446-30.907,30.081-57.192,59.419-68.888A113.078,113.078,0,0,1,241.9,24.217a1.848,1.848,0,0,1,1.029,3.521c-4.206,1.8-7.362,5.986-8.96,10.591-4.353,14.807-2.452,30.974-3.11,46.345a.309.309,0,0,1-.616,0" transform="translate(11.522 1.836)" fill="#520045"/>
    <path id="Path_26" data-name="Path 26" d="M79.887,83.521c-.216-10.268.09-20.553-.632-30.72-.6-9.268-2.237-20.916-11.432-25.078a1.837,1.837,0,0,1,1.02-3.492,114.352,114.352,0,0,1,57.69,24.561,95.443,95.443,0,0,1,32.2,53.523l0,.029c-.079-.476.153.762.155.731a.309.309,0,0,1-.233.37c-.378.134-.572-.769-.71-.972a.623.623,0,0,1-.019-.129.877.877,0,0,1,.015.093,134.52,134.52,0,0,0-35.487-48.83A108.175,108.175,0,0,0,68.323,27.869l1.02-3.491C79.968,29.645,81.45,42.374,81.5,52.7c.184,10.343-.67,20.576-.994,30.822.016.383-.632.392-.617,0" transform="translate(5.065 1.836)" fill="#520045"/>
    <path id="Path_27" data-name="Path 27" d="M152.279,150.418c11.275,12.676,21.124,27.357,37.73,32.35a54.58,54.58,0,0,0,47.267-8.99c13.981-10.364,20.27-27.5,23.015-44.091,4.389-22.633,1.715-47.129,12.571-68.458,6.91-13.973,25.885-31.738,42.61-27.254a.311.311,0,0,1-.124.6c-5.726-.649-11.147,1.405-15.776,4.393C285.487,48.13,276.366,63.027,273.231,79.6c-4.763,22.164-3.908,46.621-13.853,67.8-11.32,26.449-41.144,49.7-71.013,40.581-17.641-5.611-27.9-22.076-36.581-37.192a.311.311,0,0,1,.5-.367" transform="translate(11.515 2.525)" fill="#520045"/>
    <path id="Path_28" data-name="Path 28" d="M163.9,150.786c-8.677,15.114-18.94,31.586-36.581,37.191C97.445,197.1,67.632,173.847,56.308,147.4c-9.947-21.175-9.091-45.634-13.854-67.8C39.322,63.032,30.193,48.125,16.111,38.973,11.483,35.986,6.062,33.932.337,34.581a.311.311,0,0,1-.124-.6C16.95,29.484,35.922,47.28,42.821,61.23,53.679,82.563,51,107.05,55.391,129.688c2.745,16.591,9.037,33.73,23.016,44.091a54.583,54.583,0,0,0,47.267,8.99c16.606-5,26.451-19.673,37.731-32.35.215-.286.7.071.495.367" transform="translate(0 2.525)" fill="#520045"/>
    <path id="Path_29" data-name="Path 29" d="M152.994,31.038c5.62,38.652,5.306,77.669,3.6,116.572-.878,34.256-2.171,82.791-3.6,116.573a.515.515,0,0,1-1.029,0c-1.423-33.587-2.726-82.445-3.6-116.574-1.146-29.15-2.017-58.311.5-87.429.714-9.715,1.629-19.429,3.1-29.144a.523.523,0,0,1,1.029,0" transform="translate(11.174 2.323)" fill="#efd2d4"/>
    <path id="Path_30" data-name="Path 30" d="M.255,34.5c26.346-10.937,59.511.581,75.39,24.408C91.126,81.221,94.921,111.052,116,129.029c26.426,21.98,69.1,22.968,95.567.492,20.331-18.651,24.528-48.2,39.94-70.623,15.873-23.823,49.07-35.353,75.4-24.4-26.765-7.22-55.785,4.885-69.777,28.109-7.027,11.419-11.186,24.8-16.257,37.416-5.588,13.344-11.857,26.285-22.708,36.654-14.668,13.26-34.831,19.394-54.373,19.581-29.8-.325-58.838-15.873-71.6-43.33-8.6-16.442-12.6-34.744-22.141-50.33C56.052,39.377,27.014,27.264.255,34.5" transform="translate(0.019 2.302)" fill="#efd2d4"/>
    <path id="Path_31" data-name="Path 31" d="M170.018,17.512c-2.635,7.611-8.149,13.7-15.2,17.911a2.754,2.754,0,0,1-2.588,0c-7.756-3.626-12.834-9.584-17.274-16.6a2.359,2.359,0,0,1-.035-2.582A50.843,50.843,0,0,1,152.9.144,1.408,1.408,0,0,1,154.251.2c6.578,4.479,12.606,9.965,15.767,17.31m-.616-.023c-3.912-6.2-10.239-11.227-16.614-14.552h1.462a47.388,47.388,0,0,0-15.032,15.824l-.034-2.58c3.895,5.344,10.123,10.323,15.627,13.687h-2.584c6.1-2.673,12.226-7.651,17.176-12.38" transform="translate(10.211 0)" fill="#520045"/>
  </g>
</svg>
