<?xml version="1.0" encoding="utf-8"?>
<!-- Generator: Adobe Illustrator 27.1.1, SVG Export Plug-In . SVG Version: 6.00 Build 0)  -->
<svg version="1.1" id="Layer_1" xmlns="http://www.w3.org/2000/svg" xmlns:xlink="http://www.w3.org/1999/xlink" x="0px" y="0px"
	 viewBox="0 0 391.4 84.3" style="enable-background:new 0 0 391.4 84.3;" xml:space="preserve">
<style type="text/css">
	.st0{fill:#290023;}
	.st1{fill:#FCFCEE;}
	.st2{fill:#DFA4A8;}
	.st3{fill:#520045;}
	.st4{fill:#EFD2D4;}
	.st5{fill:#FFFFFF;}
	.st6{fill:#660055;}
	.st7{fill:#E2B1A1;}
	.st8{fill:#AF1B3F;}
	.st9{fill:none;stroke:#EFD2D4;stroke-miterlimit:10;}
	.st10{fill:none;}
	.st11{fill:none;stroke:#162722;stroke-miterlimit:10;}
	.st12{clip-path:url(#SVGID_00000073691234349268897120000015414532145775320468_);}
</style>
<g>
	<g>
		<path class="st4" d="M47.9,1.6c-0.9,3.7-2.2,7.9-3.8,12.6c-1.6,4.7-3.3,9.5-5.2,14.5c-1.9,4.9-3.9,9.8-6.1,14.7
			c-2.1,4.8-4.2,9.2-6.3,13.2c-0.6,0.4-1.5,0.8-2.6,1c-1.1,0.3-2.2,0.4-3.3,0.4c-2-4-3.9-8.4-5.9-12.9c-1.9-4.6-3.8-9.2-5.6-14
			s-3.5-9.5-5.1-14.3C2.5,12.1,1.1,7.5,0,3.1C1.7,2,3.7,1.5,6.2,1.5c2.1,8.2,4.8,16.8,8,25.8c3.2,9,6.7,17.7,10.6,26.2
			c1.7-3.7,3.4-7.6,5-11.8c1.6-4.2,3.1-8.5,4.6-12.9c1.5-4.4,2.8-8.9,4.1-13.4c1.3-4.5,2.4-8.9,3.3-13.1C43,1.7,44.4,1.5,46,1.5
			C46.8,1.5,47.5,1.5,47.9,1.6z"/>
	</g>
	<g>
		<path class="st4" d="M65,4.7c-0.5,0.8-1.2,1.7-2.2,2.6c-1,0.9-1.9,1.5-2.6,1.9c-0.8-0.4-1.7-1-2.6-1.9c-1-0.9-1.7-1.8-2.3-2.6
			C55.8,3.9,56.6,3,57.5,2c1-0.9,1.9-1.6,2.6-2c0.8,0.4,1.7,1.1,2.7,2C63.9,3,64.6,3.9,65,4.7z M56.9,18.3c0.9-0.5,1.9-0.8,2.9-1
			c1.1-0.2,2.1-0.3,3.2-0.3v39.9c-0.7,0.4-1.7,0.7-2.8,0.9c-1.2,0.2-2.3,0.3-3.3,0.3V18.3z"/>
	</g>
	<g>
		<path class="st4" d="M70.2,20.1c0.4-0.6,1.1-1.1,2-1.6c0.9-0.5,1.9-0.7,3-0.7h2.5V3.3c0.8-0.7,1.8-1.2,2.9-1.5
			c1.1-0.3,2.2-0.5,3.2-0.5v16.5h15.2c-0.1,0.9-0.3,1.6-0.7,2.2c-0.4,0.6-1,0.9-1.7,0.9H83.8v25.5c0,1.7,0.2,3,0.6,4
			s0.9,1.8,1.6,2.4c0.7,0.6,1.4,1,2.3,1.2c0.9,0.2,1.8,0.3,2.7,0.3c1.7,0,3.1-0.3,4.3-1c1.1-0.7,2.1-1.4,2.8-2.1
			c0.7,0.2,1.2,0.6,1.4,1.3c-0.3,0.4-0.7,1-1.2,1.6c-0.6,0.7-1.3,1.3-2.3,2c-0.9,0.6-2,1.2-3.3,1.7c-1.3,0.5-2.7,0.7-4.4,0.7
			c-1.5,0-2.8-0.2-4.1-0.5c-1.3-0.4-2.4-1-3.4-1.8c-1-0.8-1.7-1.9-2.3-3.3c-0.6-1.4-0.9-3.1-0.9-5.2V20.9h-7.5V20.1z"/>
	</g>
	<g>
		<path class="st4" d="M142.1,54.6c-0.2,0.3-0.4,0.6-0.7,0.9c-0.3,0.4-0.7,0.7-1.1,1c-0.4,0.3-0.9,0.6-1.4,0.9
			c-0.5,0.3-0.9,0.4-1.4,0.5c-1.7-0.1-3.1-0.7-4.2-1.9c-1.1-1.2-1.8-2.7-1.9-4.6c-0.4,0.8-1,1.6-1.9,2.4c-0.8,0.9-1.8,1.6-3,2.3
			c-1.2,0.7-2.5,1.3-4,1.7c-1.5,0.4-3.1,0.7-4.9,0.7c-3.7,0-6.6-0.9-8.7-2.8c-2.2-1.9-3.2-4.4-3.2-7.5c0-3.2,1.2-5.9,3.7-8.1
			c2.4-2.2,6.6-3.8,12.5-4.8l9.2-1.6v-3c0-3.7-0.9-6.6-2.6-8.5c-1.7-2-4.3-3-7.7-3c-2.1,0-3.9,0.5-5.4,1.6c-1.5,1.1-2.2,2.6-2.2,4.7
			c0,0.9,0.3,1.8,0.9,2.5c-0.5,0.6-1.2,1.2-2.3,1.7c-1,0.5-2.1,0.8-3.2,0.9c-0.3-0.3-0.6-0.6-0.9-1.2c-0.4-0.5-0.5-1.2-0.5-2.1
			c0-1.6,0.5-3.1,1.4-4.5c0.9-1.4,2.2-2.6,3.7-3.6c1.5-1,3.2-1.8,5.2-2.4c2-0.6,4-0.9,6.1-0.9c5,0,8.5,1.1,10.6,3.4
			c2.1,2.3,3.1,5.4,3.1,9.4v19.5c0,2.1,0.5,3.6,1.4,4.4c0.9,0.8,2,1.3,3.3,1.4L142.1,54.6z M120.2,54.6c2.7,0,5-0.6,6.9-1.9
			c1.9-1.2,3.3-2.8,4.1-4.8V36.7l-10.4,1.9c-2.8,0.5-4.9,1.4-6.4,2.6c-1.5,1.2-2.2,3-2.2,5.4c0,2.6,0.8,4.6,2.4,5.9
			C116,53.9,117.9,54.6,120.2,54.6z"/>
	</g>
	<g>
		<path class="st4" d="M167.1,58.1c1.7-4.4,3.5-9,5.4-14c1.9-4.9,3.8-9.9,5.8-14.8c1.9-4.9,3.8-9.6,5.7-14.2
			c1.8-4.6,3.5-8.7,4.9-12.4c0.9-0.4,1.8-0.7,2.9-0.9c1-0.2,2.1-0.3,3.1-0.3l20.6,55.7c-0.5,0.3-1.1,0.5-1.9,0.7
			c-0.8,0.2-1.8,0.3-3,0.3c-0.3,0-0.5,0-0.7,0c-0.2,0-0.5,0-0.7-0.1l-6.1-16.5h-24.9c-1.8,5.5-3.4,10.8-4.8,15.9
			c-0.5,0.3-1.1,0.5-1.8,0.6c-0.8,0.1-1.5,0.2-2.3,0.2c-0.5,0-0.9,0-1.2,0C167.7,58.1,167.4,58.1,167.1,58.1z M190.6,7.2
			c-1.8,4.7-3.7,9.7-5.6,14.9c-1.9,5.2-3.7,10.5-5.6,15.7h22.3L190.6,7.2z"/>
	</g>
	<g>
		<path class="st4" d="M223.5,18.3c0.9-0.5,1.9-0.8,2.9-1c1.1-0.2,2.1-0.3,3.2-0.3v6.9c0.7-0.9,1.6-1.8,2.6-2.7
			c1-0.9,2.2-1.7,3.5-2.5c1.3-0.8,2.7-1.4,4.3-1.8c1.6-0.5,3.2-0.7,5-0.7c2.7,0,5.1,0.5,7.2,1.4c2.1,0.9,3.8,2.2,5.2,3.8
			c1.4,1.6,2.5,3.6,3.2,5.8c0.7,2.2,1.1,4.7,1.1,7.3c0,3.4-0.6,6.6-1.8,9.6c-1.2,3-2.8,5.6-4.9,7.8c-2.1,2.2-4.6,3.9-7.5,5.2
			c-2.9,1.3-6,1.9-9.4,1.9c-1.8,0-3.4-0.2-4.8-0.6s-2.6-0.9-3.7-1.4v26.2c-0.7,0.4-1.7,0.7-2.8,0.9c-1.2,0.2-2.3,0.3-3.3,0.3V18.3z
			 M242,20.6c-2.4,0-4.8,0.7-7,2.2c-2.3,1.5-4.1,3.3-5.4,5.5v21.2c1.3,1.9,3,3.3,5.1,4.2c2,0.9,4.2,1.4,6.6,1.4c2,0,3.8-0.4,5.5-1.1
			c1.7-0.7,3.1-1.8,4.4-3.3c1.2-1.5,2.2-3.3,3-5.6c0.7-2.2,1.1-4.8,1.1-7.8c0-5.5-1.1-9.7-3.4-12.5C249.5,22,246.2,20.6,242,20.6z"
			/>
	</g>
	<g>
		<path class="st4" d="M267.3,49.3c0.4-0.7,1.1-1.4,2.1-2c1-0.6,2-1,3.1-1.1c0.4,2.6,1.6,4.8,3.8,6.6c2.2,1.7,5,2.6,8.4,2.6
			c3.3,0,5.7-0.7,7.3-2.1c1.6-1.4,2.4-3.2,2.4-5.3c0-2.1-0.7-3.8-2.2-5c-1.5-1.2-4-2.2-7.6-3.1l-4.6-1.2c-1.7-0.4-3.1-0.9-4.5-1.4
			c-1.3-0.5-2.5-1.2-3.4-1.9c-1-0.8-1.7-1.6-2.2-2.7c-0.5-1-0.8-2.3-0.8-3.8c0-1.6,0.4-3.2,1.2-4.7c0.8-1.5,2-2.9,3.5-4.1
			c1.5-1.2,3.2-2.1,5.1-2.8c1.9-0.7,4.1-1,6.3-1c2.3,0,4.3,0.3,5.9,0.8c1.6,0.5,2.9,1.2,4,2c1.1,0.8,1.8,1.7,2.3,2.6
			c0.5,0.9,0.8,1.8,0.8,2.5c-0.4,0.7-1,1.4-1.9,1.9c-0.9,0.5-1.8,0.9-2.9,1c-0.4-2-1.4-3.7-3-5.1c-1.7-1.4-4.1-2.2-7.5-2.2
			c-1.1,0-2.2,0.1-3.2,0.4c-1.1,0.3-2,0.7-2.8,1.3c-0.8,0.6-1.5,1.3-2,2.1c-0.5,0.8-0.8,1.7-0.8,2.8c0,1.8,0.6,3.2,1.9,4.2
			c1.2,1.1,3.4,2,6.5,2.7l4.7,1.2c4.5,1.1,7.7,2.6,9.7,4.3c1.9,1.7,2.9,4,2.9,6.6c0,1.7-0.4,3.4-1.2,5c-0.8,1.6-1.9,3.1-3.4,4.4
			c-1.5,1.3-3.3,2.3-5.5,3c-2.2,0.8-4.7,1.1-7.5,1.1c-2.4,0-4.6-0.3-6.4-0.9c-1.8-0.6-3.4-1.4-4.6-2.3c-1.3-0.9-2.2-2-2.9-3.1
			C267.8,51.5,267.4,50.4,267.3,49.3z"/>
	</g>
	<g>
		<path class="st4" d="M300.8,7.3c0.1-1.1,0.4-2.1,1-2.9c0.5-0.9,1.1-1.3,1.7-1.3h20.4c-0.1,1.1-0.4,2.1-0.9,3
			c-0.5,0.8-1.1,1.2-1.8,1.2H300.8z M309.3,18.3c0.9-0.5,1.9-0.8,2.9-1c1.1-0.2,2.1-0.3,3.2-0.3v39.9c-0.7,0.4-1.7,0.7-2.8,0.9
			c-1.2,0.2-2.3,0.3-3.3,0.3V18.3z"/>
	</g>
	<g>
		<path class="st4" d="M323.2,20.1c0.4-0.6,1.1-1.1,2-1.6c0.9-0.5,1.9-0.7,3-0.7h2.5V6.6c0.8-0.7,1.8-1.2,2.9-1.5
			c1.1-0.3,2.2-0.5,3.2-0.5v13.2H352c-0.1,0.9-0.3,1.6-0.7,2.2c-0.4,0.6-1,0.9-1.7,0.9h-12.8v25.5c0,1.7,0.2,3,0.6,4
			c0.4,1,0.9,1.8,1.6,2.4c0.7,0.6,1.4,1,2.3,1.2c0.9,0.2,1.8,0.3,2.7,0.3c1.7,0,3.1-0.3,4.3-1c1.1-0.7,2.1-1.4,2.8-2.1
			c0.7,0.2,1.2,0.6,1.4,1.3c-0.3,0.4-0.7,1-1.2,1.6c-0.6,0.7-1.3,1.3-2.3,2c-0.9,0.6-2,1.2-3.3,1.7c-1.3,0.5-2.7,0.7-4.4,0.7
			c-1.5,0-2.8-0.2-4.1-0.5c-1.3-0.4-2.4-1-3.4-1.8c-1-0.8-1.7-1.9-2.3-3.3c-0.6-1.4-0.9-3.1-0.9-5.2V20.9h-7.5V20.1z"/>
	</g>
	<g>
		<path class="st4" d="M362.9,37.5c0.2,2.8,0.7,5.2,1.5,7.3c0.9,2.1,2,3.8,3.3,5.2c1.3,1.4,2.9,2.4,4.7,3.1s3.7,1,5.7,1
			c2.5,0,4.7-0.3,6.6-1c1.8-0.7,3.5-1.7,5-3.2c0.7,0.2,1.2,0.6,1.5,1.5c-0.4,0.6-0.9,1.3-1.7,2.1c-0.8,0.8-1.9,1.6-3.2,2.4
			c-1.3,0.8-2.9,1.4-4.7,2c-1.8,0.5-4,0.8-6.4,0.8c-2.6,0-5-0.5-7.2-1.4c-2.2-0.9-4.2-2.3-5.8-4c-1.7-1.8-3-3.9-3.9-6.5
			c-1-2.6-1.4-5.5-1.4-8.8c0-3,0.5-5.8,1.6-8.5c1-2.7,2.4-5,4.2-7c1.8-2,3.9-3.5,6.3-4.7c2.4-1.2,5-1.7,7.7-1.7c3,0,5.4,0.5,7.3,1.5
			c1.9,1,3.4,2.3,4.5,3.8c1.1,1.6,1.9,3.3,2.3,5.1c0.4,1.9,0.7,3.7,0.7,5.4c-0.4,0.6-1,1.2-1.7,1.6c-0.7,0.5-1.5,0.8-2.3,1.1
			L362.9,37.5z M374.5,19.7c-1.6,0-3.1,0.3-4.5,0.9c-1.4,0.6-2.6,1.5-3.7,2.6c-1,1.2-1.9,2.7-2.5,4.6c-0.6,1.9-1,4.1-1,6.8l21.9-2.3
			c0.1-0.3,0.1-0.5,0.1-0.8c0-0.3,0-0.5,0-0.7c0-1.6-0.2-3.1-0.6-4.4c-0.4-1.3-1-2.5-1.9-3.5c-0.9-1-1.9-1.8-3.2-2.3
			C377.8,19.9,376.3,19.7,374.5,19.7z"/>
	</g>
</g>
</svg>
