<svg xmlns="http://www.w3.org/2000/svg" xmlns:xlink="http://www.w3.org/1999/xlink" version="1.1" viewBox="97.95 253.02 504.04 53.92">
 <g>
  <path d="m601.46 291.77c-0.78516-2.0039-2.0938-3.6055-3.7305-4.9609-2.375-1.9727-5-3.5234-7.8164-4.7695-3.2695-1.4492-6.6523-2.5742-10.137-3.4258-0.5-0.11719-1.0625-0.125-1.5898-0.60938 0.47656-0.20312 0.79688-0.34766 1.1211-0.46875 3.7422-1.3984 7.2852-3.2031 10.707-5.2344 2.2891-1.3555 4.4297-2.9102 6.2891-4.832 1.6875-1.7305 2.7539-3.7852 3.207-6.1562 0.33984-1.8203-0.32031-3.3477-1.9102-4.3047-0.51562-0.3125-1.1016-0.53125-1.6875-0.70703-1.8555-0.56641-3.6445-0.18359-5.3828 0.5-3.832 1.5117-7.3242 3.6328-10.328 6.4414-4.918 4.5938-9.7266 9.3086-14.59 13.957-0.24609 0.23047-0.56641 0.50781-0.875 0.53906-1.9648 0.16406-3.9375 0.25781-5.9062 0.37891-0.015625-0.11719-0.039062-0.24219-0.050781-0.35938 0.45312-0.22266 0.90234-0.46094 1.3477-0.67578 3.5742-1.7266 6.7422-4.0078 9.4922-6.875 1.1719-1.2266 2.207-2.543 2.7812-4.168 1.0352-2.9102-0.17188-5.6289-3.0781-6.6875-0.88672-0.32031-1.9141-0.46094-2.8398-0.37109-1.2539 0.11719-2.5312 0.41406-3.7031 0.88672-1.7422 0.69922-3.4492 1.5273-5.0859 2.4531-4.5312 2.5703-8.8828 5.4141-13.082 8.5-2.3398 1.7188-4.7031 3.4141-7.0234 5.168-1.9141 1.457-3.9531 2.4766-6.457 2.25-0.55469-0.050781-1.1211 0.050781-1.6797 0.050781-0.3125 0-0.62891-0.050781-0.94141-0.078125 0.44922-0.42188 0.90625-0.62891 1.3711-0.80469 2.6719-1.0547 5.1797-2.3984 7.5547-4.0078 2.7812-1.8867 5.0586-4.2773 6.7695-7.1797 0.8125-1.3711 1.3945-2.8398 1.4883-4.457 0.19141-2.9922-1.6406-5.1797-4.625-5.3555-1.1484-0.0625-2.3398 0.15234-3.4648 0.4375-2.1406 0.53906-4.1094 1.5508-5.957 2.7344-3.1367 2.0039-6.2344 4.0664-9.3086 6.1641-3.4492 2.3516-6.832 4.8281-10.305 7.1523-1.6914 1.1328-3.4844 2.1289-5.293 3.0586-2.6875 1.3711-5.5547 1.793-8.5469 1.2812 0.015626-0.11719 0.003907-0.19141 0.027344-0.20312 0.48828-0.26172 0.96875-0.53906 1.4727-0.76172 5.5117-2.5078 10.102-6.125 13.539-11.129 0.80078-1.1641 1.4609-2.4531 2.0898-3.7305 0.5-1.0195 0.61719-2.1523 0.52734-3.2891-0.17187-2.2109-1.5625-3.7031-3.7852-3.9102-1.0039-0.089843-2.0547-0.0625-3.0391 0.12891-1.4961 0.29687-2.9844 0.70703-4.418 1.2031-3.5859 1.25-6.9219 3.0234-10.035 5.1797-3.6055 2.5039-7.1445 5.0898-10.684 7.6758-3.3867 2.4766-6.8711 4.7617-10.695 6.5117-3.0078 1.3711-6.0742 2.3477-9.4375 2.1992-1.2695-0.054688-2.5469 0.015625-3.8242 0.023437-0.28516 0-0.56641-0.039062-0.85156-0.0625 0.40234-0.46875 0.87891-0.71094 1.3594-0.92969 3.5391-1.6055 6.9648-3.3945 10.051-5.7891 2.2383-1.7461 4.1289-3.7969 5.4766-6.3047 0.67578-1.2695 1.1992-2.5977 1.3164-4.0469 0.30078-3.6406-1.7188-5.9883-5.3477-6.2109-1.8594-0.11719-3.6641 0.24609-5.4141 0.82812-3.125 1.0234-6.0195 2.5195-8.7422 4.3516-2.3633 1.5977-4.6914 3.2539-7.0117 4.9297-4.5469 3.2812-9.1172 6.5391-13.957 9.3984-1.9258 1.1406-3.8594 2.2852-6.0312 2.9531-0.51953 0.16406-1.0234 0.46094-1.4727 0.78516-0.61719 0.44922-1.2109 0.53125-2.1289 0.19141 0.64453-0.33594 1.1016-0.53906 1.5273-0.78906 2.4141-1.4297 4.8789-2.7734 7.2188-4.3164 2.6602-1.7539 4.9062-4.0078 6.6641-6.6641 0.8125-1.2227 1.5-2.5664 2.0312-3.9258 0.71875-1.7969 0.71094-3.6953 0.078125-5.543-0.66797-1.9375-2.043-2.9336-4.0781-2.7383-1.1523 0.11328-2.3516 0.36328-3.3867 0.85156-1.8867 0.88672-3.7695 1.8359-5.4766 3.0234-3.1758 2.2188-6.2734 4.5469-9.3125 6.9492-4.9688 3.9141-9.8672 7.9258-14.785 11.895-0.64453 0.51953-1.2695 0.96875-2.168 0.98438-2.5977 0.050781-5.2031 0.16797-7.8008 0.24219-0.37109 0.011719-0.73828-0.066406-1.1484-0.11328 0.074219-0.16797 0.085937-0.23047 0.11719-0.24609 0.40234-0.20703 0.81641-0.42188 1.2266-0.61719 3.4258-1.6289 6.625-3.6172 9.582-5.9883 2.1094-1.6953 4.043-3.5898 5.6055-5.8242 0.82422-1.1758 1.4961-2.4258 1.832-3.8398 0.76172-3.2148-0.77344-5.4883-4.0703-5.7969-1.3555-0.12891-2.7617-0.023437-4.1094 0.17969-3.0586 0.46875-5.9258 1.5586-8.5625 3.1602-2.0898 1.2695-4.1289 2.6328-6.1367 4.0273-6.6016 4.6133-13.188 9.2578-19.77 13.914-0.95703 0.67188-1.9414 0.99609-3.125 0.95703-2.8555-0.089844-5.7109-0.085937-8.5742-0.12891-0.25781-0.003906-0.50781-0.078125-0.76172-0.125 0.80078-0.53906 1.6016-0.83984 2.4062-1.1367 3.5117-1.3086 6.8047-3.0195 9.7227-5.3945 2.043-1.668 3.7188-3.6328 4.7539-6.0859 0.51953-1.2383 0.83984-2.5078 0.8125-3.8633-0.078126-2.9609-1.7969-4.9102-4.7539-5.1953-1.1523-0.10547-2.3594-0.050781-3.4961 0.16797-1.4375 0.27344-2.8711 0.71875-4.2578 1.2227-4.4297 1.625-8.5586 3.8398-12.465 6.4727-3.4648 2.3398-6.8711 4.7695-10.309 7.1523-3.3984 2.3398-6.8164 4.6641-10.215 7.0117-0.60938 0.42188-1.2305 0.65625-1.9805 0.64844-2.2461-0.003906-4.4922 0.050781-6.7383 0.0625-0.3125 0.003906-0.62109-0.089844-0.93359-0.13281 0.78906-0.64453 1.6016-1.043 2.4023-1.457 5.2969-2.7031 9.6836-6.418 12.734-11.57 0.75-1.2656 1.3555-2.6328 1.8828-4.0039 0.46484-1.1914 0.58203-2.4805 0.35938-3.7695-0.46875-2.7383-2.3789-4.2383-5.1172-3.7852-1.4453 0.23438-2.918 0.63281-4.2344 1.25-2.207 1.0352-4.4062 2.1562-6.4297 3.5117-8.2383 5.5-16.219 11.34-23.566 18.016-0.48828 0.44141-1.0312 0.82812-1.5391 1.2539-0.69531 0.59375-1.4844 0.78906-2.4023 0.77344-3.2148-0.042969-6.4297-0.015626-9.6367-0.035157-0.32031-0.003906-0.62891-0.09375-0.94141-0.14062 0.46875-0.37109 0.94531-0.51953 1.4062-0.70703 1.7148-0.66016 3.4609-1.2422 5.1172-2.0234 3.2305-1.5234 5.9883-3.6914 8.1758-6.5234 1.9766-2.5469 3.0352-5.4219 2.8242-8.6758-0.25781-3.8359-2.7734-5.9922-6.5625-5.5039-1.6523 0.21094-3.2969 0.68359-4.8789 1.2422-2.8516 1.0078-5.4531 2.5352-7.9141 4.2891-2.5312 1.8047-5.0391 3.6445-7.4922 5.5625-5.4805 4.2773-11.426 7.8555-17.23 11.652-0.75 0.49219-1.5508 0.72266-2.4531 0.70703-1.8867-0.035157-3.7734-0.003907-5.6602-0.015626-0.32031 0-0.63672-0.0625-0.96484-0.09375 0.41406-0.46484 0.85156-0.6875 1.3047-0.89062 3.8984-1.7188 7.5-3.9219 10.746-6.668 1.7695-1.5 3.293-3.2031 4.2891-5.3203 0.61719-1.3164 0.98047-2.6836 0.85547-4.1484-0.21875-2.543-1.7148-4.0703-4.2617-4.0781-1.4062-0.003906-2.8516 0.21875-4.2188 0.57031-3.1367 0.80078-6.0195 2.2383-8.793 3.8789-3.4766 2.0625-6.6992 4.4727-9.8164 7.0391-2.3242 1.9102-4.6406 3.832-7.0508 5.6328-1.707 1.2812-3.5391 2.4062-5.3633 3.5234-0.58203 0.35938-1.3281 0.59375-2.0039 0.62891-4.7305 0.21094-9.4766 0.35938-14.211 0.51562-0.32031 0.011719-0.63672-0.054687-1.0078-0.09375 0.10156-0.18359 0.11719-0.25781 0.15234-0.27344 0.41406-0.18359 0.82812-0.37109 1.2539-0.53125 4.1172-1.5977 7.9453-3.6953 11.43-6.4219 1.9336-1.5195 3.6523-3.2578 5.1055-5.2422 0.91406-1.2422 1.6797-2.5664 2.0664-4.0703 0.39062-1.5273 0.34766-3.0312-0.28516-4.4961-0.76172-1.7461-2.2109-2.7031-4.1172-2.5586-1.0078 0.074219-2.0508 0.24219-2.9805 0.62109-2.3125 0.94141-4.625 1.9023-6.832 3.0586-3.6719 1.9336-6.9453 4.4688-10.121 7.125-2.5039 2.0898-4.9453 4.2656-7.5078 6.2773-2.6445 2.0664-5.2461 4.2109-8.2422 5.8008-0.67188 0.35938-1.3086 0.45312-2.0391 0.42188-3.1602-0.10547-6.3242-0.18359-9.4805-0.26172-1.3711-0.035156-2.7539-0.011719-4.1328-0.042969-0.24219-0.003906-0.48047-0.13281-0.77344-0.22266 0.125-0.14453 0.14453-0.20703 0.19141-0.21875 0.90625-0.33594 1.8203-0.66016 2.7266-0.99609 6.2656-2.2969 11.602-5.9258 15.824-11.117 0.83594-1.0234 1.6016-2.1289 2.2305-3.2812 0.44141-0.82812 0.75-1.8047 0.85547-2.7422 0.21875-1.9102-0.79688-3.293-2.6641-3.6836-0.88672-0.18359-1.8477-0.25781-2.7266-0.10547-1.7539 0.3125-3.5039 0.6875-5.1914 1.25-5.2695 1.7539-10.113 4.3555-14.582 7.6367-2.4258 1.7734-4.8086 3.6055-7.1445 5.5117-3.3047 2.6875-6.8672 4.9375-10.652 6.8672-0.38672 0.19531-0.86719 0.29688-1.3047 0.30078-1.6875 0.023437-3.3711 0-5.0508-0.023437-0.26172-0.003907-0.51562-0.078126-1.1094-0.17188 0.78516-0.375 1.2305-0.59766 1.6914-0.81641 2.4531-1.1523 4.7656-2.543 6.8984-4.2227 1.8203-1.4297 3.3984-3.0859 4.5977-5.0781 0.84375-1.418 1.4297-2.9297 1.5234-4.6016 0.19531-3.6172-1.9219-5.8125-5.543-5.7383-1.7578 0.035157-3.4648 0.42969-5.0273 1.1797-2.1055 1.0117-4.2344 2.0508-6.1719 3.3438-3.3438 2.2383-6.6211 4.5977-9.793 7.0664-3.793 2.957-7.7969 5.5781-11.82 8.1797-1.5195 0.98047-3.125 1.4961-4.9961 1.5391-5.8086 0.12891-11.609 0.39844-17.414 0.17188-0.66797-0.027344-1.2227 0.17188-1.4727 0.83984-0.24219 0.64844-0.066406 1.2695 0.47656 1.6445 0.48828 0.33203 1.0859 0.59375 1.6641 0.67188 0.90625 0.11719 1.832 0.085938 2.75 0.074219 1.9805-0.023438 3.9805-0.054688 5.9648-0.11719 3.668-0.11328 7.3398-0.16406 11.004-0.40234 1.6055-0.10547 2.8008 0.125 4.1055 1.2773 3.7344 3.3086 7.668 6.4062 11.57 9.5352 3.2656 2.6094 6.5234 5.2422 9.918 7.6758 2.3906 1.7188 4.9609 3.2188 7.5469 4.6484 1.3164 0.72656 2.8164 1.1719 4.2852 1.5625 0.91406 0.24219 1.9336 0.26172 2.8789 0.17188 2.6133-0.25391 4.1367-2.1914 3.7188-4.7773-0.14453-0.94141-0.44141-1.9258-0.95312-2.7148-0.92578-1.457-1.9414-2.8828-3.125-4.1328-2.9688-3.1367-6.4844-5.582-10.246-7.668-4.0273-2.2383-8.2656-3.9805-12.691-5.2734-0.47656-0.14062-1.0859-0.10156-1.4492-0.70703 0.25781-0.039063 0.41016-0.078125 0.55469-0.078125 4.543 0.003906 9.082 0.035156 13.621 0.027343 0.66016 0 1.1641 0.25391 1.6641 0.64844 1.0312 0.82812 2.082 1.6406 3.1406 2.4414 3.0117 2.2695 6.0352 4.5234 9.043 6.7969 3.6641 2.7656 7.2734 5.6016 10.988 8.3047 2.4375 1.7695 5.0273 3.3047 7.7969 4.5195 1.8359 0.80469 3.7227 1.3984 5.7305 1.5898 1.5469 0.14453 3.0625 0.035156 4.5039-0.58203 2.2305-0.94531 3.4648-3.0781 2.9805-5.4414-0.25391-1.2227-0.69531-2.5039-1.3906-3.5156-1.0039-1.4492-2.2305-2.7812-3.5234-4-1.9375-1.8203-4.2188-3.2031-6.5703-4.4531-3.9297-2.1016-8.0742-3.6641-12.363-4.8398-0.61719-0.16797-1.2891-0.20703-1.9023-0.69922 2.6133-0.20703 16.879 0.15234 18.211 0.41406 0.63672 0.59375 1.0859 1.1602 1.6562 1.5391 3.8086 2.5547 7.6445 5.0742 11.48 7.5938 3.9219 2.5859 7.8047 5.207 11.77 7.7227 2.9336 1.8594 5.9766 3.5391 9.2695 4.6758 1.625 0.55859 3.3359 0.90625 5.0352 1.1992 1.1602 0.19531 2.3398-0.011719 3.4453-0.50391 1.832-0.82422 2.8242-2.4766 2.4883-4.4453-0.16406-0.92969-0.50391-1.8984-1.0312-2.6719-0.76562-1.125-1.6641-2.2227-2.6992-3.0977-1.7148-1.4375-3.5156-2.7891-5.3984-4.0039-4.5977-2.9922-9.5859-5.1875-14.797-6.8945-0.46484-0.15234-1.0625-0.15234-1.4609-0.8125 0.62109 0 1.082 0.003906 1.5352 0 4.543-0.10156 9.0781-0.19141 13.613-0.32031 0.93359-0.027344 1.7969-0.10547 2.3867 0.875 0.17969 0.30078 0.66016 0.46484 1.0352 0.60547 2.1094 0.80469 4.0273 1.9727 5.875 3.2539 2.4258 1.6914 4.8164 3.4375 7.2422 5.1289 3.8477 2.6836 7.6758 5.3984 11.586 7.9844 2.8438 1.8867 5.7969 3.6445 8.9883 4.8945 1.7031 0.66016 3.4766 1.1484 5.2656 1.5625 0.81641 0.19141 1.7422 0.13281 2.5742-0.011718 2.2305-0.40234 3.3828-2.0273 2.8516-4.2344-0.3125-1.3086-0.94141-2.5859-1.6289-3.7578-1.2227-2.0898-2.9414-3.7734-4.7773-5.332-5.4141-4.5742-11.484-7.9297-18.363-9.7383-1.3828-0.36328-2.7812-0.65625-4.168-0.99609-0.28516-0.074219-0.55469-0.23047-0.82812-0.34766 0.72266-0.21094 1.3906-0.21875 2.043-0.21094 3.0625 0.027344 6.1211 0.050782 9.1797 0.09375 1.4609 0.015625 2.9727-0.24219 4.2227 0.82422 5.668 2.0898 10.992 4.8906 16.09 8.1016 4.0078 2.5312 7.875 5.2969 11.859 7.8555 3.1758 2.0273 6.418 3.9648 9.6992 5.8242 2.3594 1.3398 4.9062 2.2773 7.5547 2.8789 1.8555 0.42188 3.7188 0.61719 5.6094 0.22266 3.6445-0.76172 5.3086-3.7852 3.9805-7.2812-0.60547-1.5977-1.5078-3.0391-2.7266-4.207-1.5859-1.5117-3.2031-3-4.9727-4.2852-4.1289-2.9961-8.7539-5.0742-13.68-6.3008-4.4531-1.1016-8.9766-1.875-13.469-2.793-0.55469-0.11719-1.1094-0.23438-1.6641-0.35156 0.55469-0.26953 1.0625-0.26172 1.5742-0.26953 4.6406-0.0625 9.2773-0.125 13.914-0.17188 1.2266-0.011719 2.4531-0.015625 3.6719 0.035157 0.42578 0.015624 1.0039 0.10547 1.2422 0.37891 0.74609 0.86328 1.7578 1.1875 2.7109 1.6562 1.4609 0.72656 2.9453 1.4219 4.3047 2.3086 4.75 3.0859 9.4141 6.2891 14.172 9.3516 3.5938 2.3242 7.2422 4.5703 10.949 6.7188 2.7383 1.5898 5.6914 2.7539 8.8047 3.4453 1.707 0.37109 3.4258 0.54688 5.1641 0.19531 3.3164-0.65625 4.7656-3.4375 3.1914-6.4336-0.67188-1.2891-1.625-2.4766-2.6211-3.543-1.8828-2.0273-4.1602-3.5938-6.5078-5.0586-5.9414-3.6719-12.281-6.4219-19.051-8.1758-0.50781-0.14063-1.0078-0.3125-1.8477-0.57031 0.54297-0.089844 0.69531-0.13281 0.83984-0.13281 4.8984-0.078124 9.793-0.15234 14.688-0.24219 0.81641-0.015625 1.457 0.11719 1.875 0.96875 0.20312 0.41406 0.73828 0.67578 1.1523 0.96875 6.0078 4.1328 12.012 8.2695 18.039 12.383 2.4453 1.6758 4.9062 3.3164 7.3867 4.918 2.8711 1.8633 5.8789 3.4961 9.0898 4.7109 1.9414 0.73828 3.9531 1.3594 5.9766 1.8438 1.7344 0.41406 3.5508 0.4375 5.3047-0.089844 2.418-0.72656 3.6328-2.5469 3.1406-5.0117-0.24219-1.2266-0.77344-2.4258-1.3711-3.5273-0.94141-1.7148-2.3242-3.0977-3.7852-4.3789-5.4414-4.8086-11.637-8.2773-18.672-10.09-3.3984-0.875-6.8867-1.4336-10.332-2.1328-0.58203-0.11719-1.1602-0.25781-1.7461-0.39062 6.8828-0.66797 13.727-1.2812 20.715-0.89062 0.28125 1.0977 1.1758 1.5742 2.0508 2.1172 6.7188 4.1758 13.215 8.6641 19.527 13.434 2.6445 2.0039 5.3867 3.8711 8.1641 5.6719 2.7422 1.7812 5.6797 3.2539 8.8945 4.0039 1.4219 0.33594 2.9219 0.53906 4.375 0.48828 2.8906-0.089844 4.4648-1.8086 4.5469-4.7031 0.011719-0.46094-0.027344-0.91797-0.09375-1.3672-0.32422-2.2773-1.2266-4.3398-2.7422-6.043-1.1875-1.3281-2.4648-2.5977-3.8398-3.7188-4.8281-3.9219-10.23-6.8672-16.094-8.9609-0.48828-0.17188-1.0703-0.21875-1.5352-0.78906h12.566c1.0117 0.71875 1.8125 1.3203 2.6562 1.8828 0.72266 0.48047 1.5117 0.85547 2.2188 1.3477 4.9609 3.4219 9.7422 7.0664 14.191 11.145 1.7656 1.6172 3.5742 3.2031 5.4336 4.7109 3.3438 2.7266 7.0391 4.8789 11.105 6.3516 1.9336 0.70703 3.9219 1.1328 5.9961 0.92969 3.3945-0.32422 5.1289-2.6758 4.2617-5.9648-0.32422-1.2109-0.88672-2.3984-1.5391-3.4648-0.6875-1.125-1.5273-2.1914-2.4922-3.0859-1.7461-1.6367-3.5352-3.2539-5.4609-4.6602-4.8477-3.5352-10.125-6.3008-15.809-8.2617-0.40234-0.14062-0.78906-0.33203-1.4844-0.62891 2.3984 0 4.4336 0.0625 6.4727-0.015625 1.5625-0.0625 3.0352-0.054688 4.207 1.2031 0.23047 0.25391 0.59766 0.37891 0.90234 0.56641 1.4453 0.86719 2.9062 1.7031 4.3242 2.6094 6.5703 4.2109 13.047 8.5586 19.344 13.172 1.7695 1.293 3.5938 2.5312 5.5117 3.5898 1.9023 1.0625 3.9258 1.9414 5.9531 2.7539 1.7656 0.70703 3.6523 0.91797 5.5547 0.86328 3.6445-0.11328 5.6523-2.2734 5.4648-5.8984-0.15625-2.9961-1.4062-5.543-3.4961-7.6094-1.4453-1.4297-3.0352-2.7422-4.7227-3.875-4.418-2.9805-9.1797-5.2969-14.301-6.832-0.37891-0.11719-0.74609-0.28516-1.1211-0.42578 0.27344-0.24609 0.46484-0.30859 0.66016-0.3125 3.625-0.10156 7.2422-0.19531 10.863-0.28516 0.29688-0.003906 0.62891 0.027344 0.88672 0.16406 0.98438 0.51562 2.0117 1.0039 2.9219 1.6406 2.4648 1.7148 5.0078 3.3555 7.3008 5.2852 5.9531 4.9961 12.258 9.4922 18.738 13.746 1.9023 1.2539 3.9922 2.2617 6.0742 3.207 2.2773 1.043 4.7227 1.2227 7.2031 0.89062 1.2773-0.17188 2.4883-0.55859 3.5742-1.2773 1.5859-1.0547 2.3008-2.5352 2.1055-4.4414-0.14063-1.3477-0.59766-2.6133-1.418-3.6719-1.1875-1.5195-2.4023-3.0508-3.8086-4.3633-4.5859-4.2891-9.8555-7.5703-15.605-10.078-0.42578-0.18359-0.83984-0.39844-1.5508-0.73828 2.5977-0.17188 3.7305-0.035156 5.6172 0.62109 0.91797 0.32031 1.8477 0.57812 2.7539 0.92578 3.0508 1.1602 6.0312 2.4453 8.6523 4.4805 4.1172 3.1875 8.2305 6.3672 11.961 10.012 2.3516 2.2852 4.9336 4.2852 7.8359 5.8242 1.6133 0.85547 3.3047 1.6055 5.0234 2.2188 2.0625 0.73437 4.207 0.72656 6.3281 0.14062 3.2539-0.90234 4.8477-3.4102 4.2773-6.7305-0.33984-2.0156-1.1758-3.832-2.5312-5.3242-1.3672-1.5-2.8281-2.9453-4.4141-4.2188-3.2812-2.6328-6.957-4.6211-10.898-6.1094-0.46875-0.17969-1.0547-0.21094-1.4844-0.86328 1.043 0 1.9023-0.027344 2.7734 0.015625 0.39062 0.015625 0.83594 0.09375 1.1602 0.28516 1.7852 1.0703 3.7852 1.4961 5.7578 2.0117 0.95703 0.25391 1.8125 0.62109 2.6094 1.1914 3.2695 2.3516 6.5859 4.6406 9.8125 7.0625 3.8086 2.8555 7.9414 5.1797 12.168 7.3398 2.3359 1.1914 4.832 1.8945 7.4492 2.1836 1.5508 0.17188 3.0586 0.027344 4.5039-0.56641 2.5742-1.0547 3.793-3.2891 3.293-6.0312-0.23437-1.2812-0.80078-2.4297-1.6406-3.4062-0.76172-0.88672-1.5898-1.7266-2.4766-2.4883-3.4766-3-7.4883-5.0977-11.727-6.793-0.5-0.20312-0.99609-0.41016-1.6523-0.67578 1.1719-0.41016 5.293-0.71875 6.8945-0.61719 0.84375 0.83984 1.5234 1.5742 2.2695 2.2383 1.1758 1.0469 2.457 1.9922 3.5898 3.0859 2.6992 2.5977 5.6172 4.9062 8.8984 6.6914 3.0898 1.6797 6.2266 3.2891 9.3867 4.8281 1.3164 0.63672 2.7422 1.1016 4.1602 1.5117 1.5898 0.45312 3.2266 0.44922 4.8281-0.054687 1.9102-0.59375 2.9453-1.9141 3.2148-3.875 0.16406-1.207-0.03125-2.3984-0.48047-3.5586zm-454.19-3.5625c3.832 2.0664 7.3906 4.5039 10.461 7.6172 1.1133 1.1367 2.1328 2.3359 2.7812 3.8008 0.3125 0.69531 0.71875 1.457 0.15625 2.1602-0.50391 0.63281-1.332 0.54688-2.0039 0.37891-1.3203-0.33594-2.6953-0.66797-3.8984-1.2891-2.1602-1.1211-4.3242-2.3125-6.2891-3.7422-3.8711-2.8242-7.6211-5.7969-11.379-8.7656-2.2383-1.7695-4.3945-3.6406-6.5977-5.4531-0.23438-0.19141-0.48828-0.34766-0.73438-0.51953 0.0625-0.078125 0.11719-0.16406 0.17188-0.24219 0.18359 0 0.375-0.039063 0.54688 0.003906 5.8047 1.4492 11.488 3.2031 16.785 6.0508zm-11.477-11.781c-1.0312 0.24219-2.1094 0.35156-3.1758 0.38672-1.875 0.0625-3.7578 0.015625-6.0352 0.015625 0.60547-0.46094 0.91406-0.69531 1.2266-0.91797 2.8828-2.1016 5.75-4.207 8.6523-6.2812 3.2266-2.3203 6.4102-4.6875 9.7344-6.8594 1.7734-1.1523 3.7578-2.0312 5.7227-2.8438 1.0039-0.41406 2.1719-0.54688 3.2773-0.58203 1.418-0.042969 2 0.64844 2.0391 2.082 0.035156 1.1602-0.35938 2.1992-0.90625 3.1992-0.95312 1.7148-2.2695 3.1211-3.7852 4.3438-2.3203 1.8633-4.8672 3.3359-7.5977 4.5078-2.957 1.2812-6.0195 2.2305-9.1523 2.9492zm35.594 8.1523c4.25 1.1602 8.3164 2.7773 12.152 4.9492 2.3125 1.3086 4.5312 2.7812 6.3398 4.7539 0.84375 0.92969 1.625 1.9766 2.1797 3.1016 1.0547 2.1406 0.26953 3.5156-2.082 3.6953-1.1484 0.089843-2.3789 0.015625-3.4727-0.3125-1.7422-0.53125-3.4961-1.1719-5.0742-2.0703-2.6055-1.4844-5.1523-3.1133-7.5781-4.8789-3.2969-2.3984-6.4531-4.9883-9.6758-7.4805-1.9727-1.5352-3.9688-3.0352-5.957-4.5469-0.26953-0.20312-0.51953-0.42188-0.78906-0.63672 0.039062-0.0625 0.074218-0.12891 0.10547-0.19531 0.18359 0.039063 0.37109 0.066406 0.55469 0.11719 4.4297 1.1641 8.875 2.2969 13.297 3.5039zm-10.074-7.625c-0.50391 0.0625-1.0195 0.074219-1.5273 0.09375-0.12891 0.003906-0.26172-0.074219-0.51953-0.15234 0.19531-0.20312 0.30078-0.35156 0.44922-0.46094 2.7734-2.0703 5.543-4.1445 8.3281-6.1992 2.3359-1.7305 4.625-3.5234 7.0234-5.1406 3.9102-2.6328 8.125-4.6602 12.645-6.0156 1.1211-0.33594 2.2773-0.53125 3.4336-0.73438 0.53125-0.085938 1.0859-0.015625 2.0039-0.015625-0.30078 0.93359-0.40234 1.5469-0.6875 2.043-0.50391 0.87891-1.0703 1.7344-1.7031 2.5273-3.2812 4.082-7.3125 7.2188-12.113 9.3242-5.543 2.4219-11.332 3.957-17.332 4.7305zm59.734 14.027c1.9531 1.1875 3.8086 2.543 5.6445 3.9141 0.84375 0.63281 1.5625 1.457 2.2734 2.25 0.37109 0.41406 0.66016 0.91406 0.88672 1.418 0.5 1.1523 0.11719 1.9648-1.1211 2.0938-0.99609 0.10547-2.0664 0.09375-3.0195-0.17188-1.707-0.48047-3.4219-1.0547-5-1.8359-2.5547-1.2617-5.0977-2.5859-7.4883-4.1367-5.9375-3.8594-11.789-7.8516-17.668-11.801-0.15625-0.10547-0.28516-0.25781-0.42578-0.37891 0.039063-0.11328 0.078125-0.21875 0.11719-0.33203 1.5898 0.3125 3.1875 0.57031 4.7695 0.93359 7.3867 1.6953 14.52 4.082 21.031 8.0469zm-23.328-12.98c-0.49219 0.078125-0.99609 0.085937-1.4961 0.12891-0.035156-0.10547-0.0625-0.21875-0.09375-0.32031 0.21875-0.19531 0.42969-0.39844 0.65625-0.58203 3.2969-2.6445 6.5898-5.2969 9.9023-7.9258 2.4766-1.9648 4.918-3.9766 7.4688-5.8281 2.9805-2.1602 6.2227-3.8867 9.7109-5.1016 0.76172-0.26953 1.5664-0.46875 2.3672-0.57813 0.83594-0.11328 1.3047 0.18359 1.4492 1.0078 0.14062 0.72266 0.17188 1.5469-0.035156 2.2383-0.27344 0.90625-0.75781 1.7812-1.2891 2.5742-1.2539 1.875-2.8398 3.4609-4.6094 4.8594-3.2969 2.6211-6.957 4.6211-10.887 6.1094-4.2578 1.6133-8.6523 2.707-13.145 3.418zm47.758 7.4805c6.5781 1.7188 12.324 5.0508 17.414 9.5352 1.6523 1.457 3.1289 3.0742 4.1367 5.0625 0.32031 0.61719 0.72656 1.2383 0.54688 2.0391-0.53125 0.42969-1.1641 0.40234-1.7461 0.25781-1.4297-0.35938-2.8945-0.67188-4.2461-1.2383-1.8711-0.78906-3.6914-1.7305-5.4609-2.7266-4.2734-2.4062-8.3086-5.168-12.27-8.0547-2.8906-2.0938-5.7969-4.1602-8.6875-6.2539-0.24219-0.17188-0.45312-0.37109-0.96484-0.79688 0.60547 0 0.86719-0.039062 1.1094 0.011719 3.3984 0.70703 6.8203 1.2969 10.168 2.1641zm-5.9102-8.0586c-1.8867 0.41016-4.3945 0.44922-5.9648 0.09375 0.26172-0.24609 0.45313-0.45312 0.67578-0.62891 2.8242-2.2617 5.6719-4.4922 8.4766-6.7695 3.3281-2.7109 6.7773-5.2344 10.543-7.293 2.3281-1.2695 4.75-2.3594 7.3516-2.9219 0.79687-0.17188 1.6133-0.25391 2.4258-0.24219 0.86719 0.011719 1.25 0.37109 1.2305 1.2227-0.003907 0.74609-0.14453 1.5234-0.40234 2.2227-0.55859 1.5117-1.5625 2.7383-2.7344 3.8203-2.2969 2.1211-4.8438 3.8984-7.5898 5.375-4.418 2.3945-9.1094 4.0508-14.012 5.1211zm47.238 9.5391c5.0195 1.0742 9.7383 2.9961 14.051 5.8242 1.9258 1.2617 3.7852 2.625 5.2656 4.4023 0.83594 1.0039 1.6055 2.1289 2.1328 3.3164 0.70703 1.5781 0.011719 2.6641-1.6875 3.0352-1.4844 0.32422-2.9453 0.10547-4.3906-0.22266-2.3516-0.54297-4.6016-1.3828-6.6914-2.5703-3.0586-1.7305-6.0859-3.5156-9.043-5.4219-4.5938-2.9453-9.1016-6.0156-13.66-9.0039-1.1797-0.77344-2.4258-1.457-3.6445-2.1719 0.035156-0.11328 0.0625-0.22266 0.089843-0.33594 0.85156 0.11719 1.707 0.20312 2.5469 0.35156 5.0195 0.91797 10.051 1.7305 15.031 2.7969zm-13.418-9.875c-2.6641 0.37109-5.3633 0.55469-8.043 0.8125-0.27344 0.023438-0.55859-0.042969-0.84375-0.066406-0.015625-0.10156-0.035156-0.20312-0.054688-0.30859 0.50391-0.33594 0.99219-0.6875 1.5078-1.0078 5.1562-3.1992 10.078-6.7305 14.891-10.426 2.418-1.8594 4.9453-3.5859 7.5039-5.2539 2.0898-1.3672 4.3672-2.4258 6.8047-3.0469 0.87891-0.22266 1.8086-0.37891 2.7109-0.38672 1.3984-0.011719 2.0312 0.57812 2.3398 1.9375 0.30078 1.332 0.10156 2.6328-0.28516 3.9141-0.52734 1.7539-1.5352 3.207-2.7656 4.5234-2.2734 2.418-4.9961 4.1719-8.0938 5.3438-5.0781 1.9219-10.312 3.2148-15.672 3.9648zm58.613 14.605c2.3789 1.3945 4.7148 2.8633 6.7148 4.7695 0.95312 0.90625 1.8477 1.9141 2.5742 3 1.0312 1.5273 0.58984 2.4453-1.2227 2.5469-1.2031 0.066406-2.4531-0.054687-3.6328-0.29688-2.6133-0.53906-5.0391-1.6289-7.3984-2.8438-4.0898-2.1016-7.9141-4.6328-11.723-7.1953-3.9688-2.6875-7.9727-5.3203-11.961-7.9727-0.27344-0.18359-0.53906-0.37891-0.80469-0.57812 0.027344-0.078126 0.050781-0.16406 0.078125-0.24219 0.48047 0.035156 0.96875 0.035156 1.4453 0.10156 9.1992 1.2812 17.906 3.9961 25.93 8.7109zm-23.797-13.867c-1.6055 0.16406-3.2383 0.023438-5.2148 0.023438 0.55469-0.54297 0.88672-0.90234 1.2539-1.2227 7.0664-6.1055 14.57-11.637 22.379-16.762 2.0898-1.3711 4.2969-2.5547 6.707-3.2891 0.62891-0.19141 1.2891-0.33984 1.9414-0.38672 0.84375-0.054688 1.2305 0.26172 1.3594 1.1016 0.089844 0.54297 0.12891 1.1523-0.027344 1.6641-0.33984 1.1094-0.71094 2.2383-1.2617 3.2578-2.2578 4.1836-5.5273 7.4102-9.5547 9.8906-5.3906 3.3398-11.316 5.0898-17.582 5.7227zm46.82 8.207c7.1836 1.5 13.531 4.7539 19.074 9.5352 1.2656 1.0938 2.3633 2.3867 3.4219 3.6836 0.53125 0.64844 0.88672 1.4961 1.1406 2.3086 0.40234 1.293-0.035156 2-1.3906 2.1289-1.1523 0.10547-2.3672 0.11719-3.4883-0.125-1.6875-0.36328-3.3438-0.90234-4.957-1.5195-3.2461-1.2422-6.3047-2.8789-9.207-4.793-3.2773-2.1602-6.5078-4.3867-9.7539-6.5859-3.1211-2.1094-6.2422-4.2227-9.3633-6.3438-0.36328-0.24609-0.70703-0.53906-1.0547-0.8125 0.042969-0.10547 0.085938-0.21094 0.125-0.32031 0.75 0.11328 1.4961 0.21094 2.2383 0.34766 4.4102 0.82422 8.8359 1.5742 13.215 2.4961zm-11.898-8.6641c-1.8945 0.28516-3.8398 0.26172-5.7578 0.38672-0.039063-0.10547-0.074219-0.21875-0.10547-0.33203 0.21875-0.18359 0.42969-0.39062 0.67188-0.56641 4.9375-3.4375 9.8711-6.875 14.828-10.297 3.7852-2.6094 7.7383-4.9375 12.027-6.6289 1.6055-0.63672 3.2695-1.1641 4.9453-1.5781 0.91406-0.23047 1.9258-0.21875 2.8789-0.125 1.1523 0.11719 1.7852 0.78906 1.7461 1.9414-0.035156 0.99609-0.25391 2.0273-0.62109 2.9531-0.77734 1.9375-2.1719 3.4375-3.7812 4.7305-2.0312 1.6523-4.2617 2.9922-6.6758 3.9922-6.4844 2.6953-13.227 4.4766-20.156 5.5234zm60.961 13.949c1.4688 1.0977 2.832 2.3359 4.1602 3.5938 1.1523 1.0977 2.0117 2.4453 2.4531 4.0039 0.19141 0.67578 0.33203 1.3945 0.34766 2.1016 0.023437 1.2148-0.42188 1.7461-1.625 1.7461-1.1602 0-2.3398-0.15234-3.4648-0.42187-2.2969-0.54688-4.4453-1.5273-6.4531-2.75-2.4297-1.4883-4.8555-3.0195-7.1445-4.7148-5.9922-4.4258-11.973-8.8555-18.246-12.879-0.24219-0.15625-0.44141-0.37109-0.66016-0.54688 0.039063-0.125 0.085937-0.24609 0.12891-0.37109 1.5117 0.11719 3.0312 0.21875 4.5469 0.35938 9.5586 0.86719 18.246 4.1211 25.957 9.8789zm-15.781-15.137c-3.5898 0.82812-7.1797 0.69531-10.793 0.68359-0.074219 0-0.14453-0.11328-0.29688-0.24219 0.23047-0.19531 0.42969-0.39844 0.66016-0.55859 5.4766-3.8984 10.949-7.8164 16.441-11.68 1.7461-1.2383 3.5391-2.4062 5.3633-3.5156 2.3242-1.418 4.8438-2.3789 7.5391-2.8281 0.99609-0.16406 2.0312-0.24609 3.0352-0.19141 1.625 0.078125 2.1094 0.78516 1.5273 2.3281-0.40234 1.0742-1.0078 2.1094-1.6914 3.0469-1.3711 1.9141-3.1211 3.4961-4.9727 4.9336-5.0078 3.8945-10.59 6.5781-16.812 8.0234zm33.492 7.9141c5.9922 2.0391 11.457 5.0391 16.496 8.8438 1.875 1.418 3.6641 2.9531 5.0625 4.8477 0.74609 1.0078 1.3906 2.1406 1.8242 3.3086 0.60547 1.6445 0.003906 2.4414-1.7695 2.4414-1.0586 0-2.1523-0.14062-3.1641-0.42188-3.7305-1.0469-7.0625-2.9297-10.125-5.2461-2.1836-1.6641-4.2617-3.4766-6.3008-5.332-3.8906-3.5352-7.9805-6.8086-12.258-9.8672-0.27344-0.19531-0.51562-0.42969-0.77734-0.64844 0.050782-0.09375 0.09375-0.18359 0.14062-0.27344 3.6797 0.50781 7.332 1.1484 10.871 2.3477zm-2.957-7.3945c-2.3086 0.56641-4.6328 0.42578-6.957 0.37891-0.039062-0.10156-0.074218-0.20312-0.10547-0.29688 0.29297-0.26953 0.57812-0.54688 0.88672-0.80078 4.5312-3.6523 9.0234-7.3516 13.59-10.93 2.7344-2.1406 5.5625-4.1484 8.4297-6.0938 1.293-0.87891 2.7773-1.4883 4.207-2.168 0.5-0.23438 1.0703-0.34766 1.625-0.42188 0.80469-0.10547 1.1641 0.09375 1.3164 0.91406 0.15234 0.78516 0.26953 1.6562 0.074219 2.4062-0.28516 1.1133-0.74609 2.2227-1.3398 3.2188-1.4727 2.4883-3.4766 4.5234-5.7891 6.2383-4.8164 3.5781-10.105 6.1328-15.938 7.5547zm50.652 13.945c1.4336 0.95703 2.7734 2.0938 4.0039 3.2969 1.4492 1.4102 2.4023 3.1641 2.6055 5.2305 0.21875 2.2305-0.5 3.0312-2.6992 3.0469-1.8086 0.015625-3.5742-0.33203-5.207-1.0703-1.8086-0.8125-3.5938-1.7031-5.3047-2.6992-1.6641-0.98047-3.2656-2.082-4.8203-3.2305-5.9922-4.4141-12.188-8.5352-18.434-12.566-0.41016-0.26953-0.79688-0.57031-1.1914-0.86328 4.6875-0.14062 9.168 0.42969 13.621 1.3477 6.3281 1.3203 12.09 3.9414 17.426 7.5078zm-19.887-13.766c-1.0625 0.30859-2.1953 0.51562-3.2969 0.55859-2.75 0.11328-5.5039 0.11328-8.2539 0.14062-0.5 0-0.99219-0.078125-1.4844-0.11719-0.003906-0.10156-0.015624-0.20312-0.023437-0.29688 0.15625-0.11719 0.30078-0.25781 0.47656-0.35156 5.5391-3.1875 10.742-6.8672 15.902-10.613 2.0664-1.4961 4.1367-2.9805 6.2539-4.4141 2.4531-1.6641 5.0586-3.0625 7.8672-4.0547 1.4961-0.52734 3.0312-0.91797 4.6406-0.82812 1.9336 0.10547 2.8047 1.0938 2.4688 3.0078-0.16797 0.93359-0.53125 1.8633-0.96484 2.7148-1.0117 1.9805-2.4531 3.6641-4.25 4.957-1.8125 1.3086-3.668 2.5977-5.6328 3.668-4.3555 2.3828-8.9258 4.25-13.703 5.6289zm47.578 8.7305c4.1094 2.1797 7.9961 4.6992 11.395 7.9141 1.1016 1.043 2.1172 2.1992 3.0508 3.4062 0.51562 0.66797 0.85547 1.5 1.1094 2.3203 0.29688 0.95703-0.003906 1.5781-0.89453 2.0234-0.62891 0.30859-1.3281 0.53125-2.0234 0.64453-2.0117 0.32031-3.9922 0.11719-5.8281-0.75781-1.8828-0.89062-3.7734-1.8203-5.5117-2.9688-6.3711-4.2227-12.641-8.6133-18.445-13.609-1.3438-1.1523-2.7773-2.1992-4.4727-3.5391 0.82812-0.050781 1.2773-0.13281 1.7188-0.09375 3.1367 0.30078 6.3008 0.49219 9.418 0.98047 3.7031 0.56641 7.1758 1.9219 10.484 3.6797zm-7.5234-8.9883c-0.34766 0.09375-0.69922 0.18359-1.0547 0.18359-3.7617 0.015625-7.5273 0.011719-11.297 0.011719-0.035156-0.09375-0.0625-0.19141-0.09375-0.28125 0.19141-0.14062 0.36328-0.30078 0.57031-0.41406 3.4102-1.8711 6.5312-4.1602 9.6562-6.4531 3.1211-2.2891 6.2734-4.543 9.4688-6.7266 2.918-1.9883 6.0547-3.6016 9.418-4.6797 1.4883-0.48047 3.0625-0.80078 4.6133-0.96875 1.5273-0.16406 2.1172 0.54688 1.7539 2.0273-0.23437 0.96875-0.64844 1.9414-1.1758 2.793-2.0703 3.3203-4.6719 6.1641-7.9258 8.3906-4.2695 2.9023-9.0195 4.6992-13.934 6.1172zm43.566 11.555c2.3359 1.3711 4.543 2.9297 6.4531 4.8672 0.67578 0.6875 1.3672 1.3945 1.8594 2.2109 0.55469 0.90234 1.0234 1.8945 1.293 2.9062 0.52734 2.0156-0.20703 3.0703-2.2383 3.5781-1.5859 0.39844-3.168 0.30078-4.6602-0.30078-1.5586-0.62109-3.0898-1.3281-4.5547-2.1406-2.5977-1.4375-4.8984-3.3086-7.0234-5.375-4.3633-4.2383-9.1602-7.9336-14.094-11.473-0.20312-0.14453-0.37891-0.30859-0.56641-0.46094 0.027344-0.11719 0.054688-0.24609 0.089844-0.35938 1.457 0.13281 2.9219 0.23047 4.375 0.42188 6.7305 0.87109 13.176 2.6523 19.066 6.125zm-13.738-11.082c-0.90234 0.15234-1.7812 0.40234-2.6719 0.60938-0.050781 0.011719-0.09375 0.050781-0.14453 0.050781-1.8633 0.14062-3.7109-0.011719-5.8672-0.15234 0.42969-0.39062 0.58984-0.57031 0.77734-0.70703 4.1953-2.8828 8.3828-5.7773 12.602-8.6367 3.0352-2.0625 6.0664-4.1211 9.1914-6.0469 1.5469-0.95312 3.2695-1.6445 4.9688-2.3203 0.77344-0.30859 1.6953-0.39062 2.543-0.37109 1.1758 0.050781 1.8242 0.75 1.6758 1.9102-0.14062 1.0312-0.46094 2.0938-0.95312 3.0195-1.4766 2.7422-3.6445 4.8828-6.2383 6.5898-4.8438 3.2031-10.191 5.0781-15.883 6.0547zm47.215 11.832c1.6953 1.0977 3.2578 2.4453 4.7617 3.8086 0.68359 0.62109 1.2109 1.5234 1.5508 2.4023 0.54688 1.4219-0.039063 2.5703-1.5 2.9805-0.90625 0.25781-1.9102 0.33203-2.8555 0.26172-2.3086-0.16797-4.4961-0.89062-6.5391-1.9492-4.0273-2.0898-7.9727-4.2969-11.602-7.0508-2.4766-1.8828-5.0352-3.6445-7.5469-5.4648-0.40234-0.29297-0.78906-0.60547-1.1875-0.90625 0.011719-0.13281 0.027344-0.27344 0.035156-0.40234 0.42188-0.085937 0.83984-0.23437 1.2617-0.24219 8.4883-0.082031 16.441 1.918 23.621 6.5625zm-16.418-11.883c-2.1602 0.36328-4.3125 0.76172-6.4688 1.1367-1.1094 0.19141-2.207 0.18359-3.5234-0.42969 0.26953-0.14453 0.54688-0.26172 0.78906-0.44141 5.4336-4.0547 10.887-8.0742 16.762-11.465 1.8086-1.043 3.6641-2 5.5625-2.8711 0.95703-0.44141 2.0312-0.67578 3.0742-0.86719 0.57031-0.10156 1.2383-0.015624 1.793 0.17188 1.2305 0.4375 1.707 1.4609 1.1797 2.6992-0.375 0.875-0.86328 1.7812-1.5352 2.4297-1.6367 1.5898-3.2891 3.2188-5.1445 4.5312-3.7539 2.6445-7.9492 4.3359-12.488 5.1055zm23.602-3.625c2.5859-2.4453 5.207-4.8789 7.8008-7.3203 2.543-2.4023 5.4336-4.3008 8.5742-5.7891 0.91797-0.42969 1.9102-0.70703 2.8789-1.0195 0.28516-0.089844 0.59766-0.11719 0.90234-0.11719 2.1289-0.023438 2.75 0.86719 2.0508 2.8672-0.48047 1.3711-1.2109 2.625-2.3242 3.5391-1.6875 1.3828-3.3828 2.793-5.2344 3.9492-5.2734 3.2656-10.938 5.668-16.969 7.1641-0.19141 0.050781-0.39062 0.0625-0.58203 0.089844-0.074219-0.089844-0.14453-0.17188-0.21094-0.26172 1.0312-1.0391 2.0508-2.0977 3.1133-3.1016zm21.941 23.027c-0.85547-0.074218-1.7305-0.25391-2.5195-0.57031-5.7305-2.3203-11.219-5.1133-16.207-8.793-1.3906-1.0234-2.5859-2.3008-3.8789-3.457-1.0938-0.96484-2.1953-1.9219-3.2969-2.8828 0.035157-0.125 0.0625-0.25391 0.09375-0.375 1.1523 0.078125 2.3203 0.085938 3.4648 0.23438 5.1797 0.6875 10.16 2.1094 14.957 4.1875 2.5742 1.125 5 2.5312 7.1797 4.3164 1.1992 0.98438 2.2383 2.1055 2.8242 3.5625 0.94531 2.3789 0.51563 4.0391-2.6172 3.7773z"/>
  <use x="70" y="644" xlink:href="#u"/>
  <use x="90.550781" y="644" xlink:href="#b"/>
  <use x="104.359375" y="644" xlink:href="#a"/>
  <use x="123.347656" y="644" xlink:href="#l"/>
  <use x="142.242188" y="644" xlink:href="#d"/>
  <use x="155.628906" y="644" xlink:href="#a"/>
  <use x="174.617188" y="644" xlink:href="#k"/>
  <use x="204.410156" y="644" xlink:href="#j"/>
  <use x="224.453125" y="644" xlink:href="#i"/>
  <use x="252.453125" y="644" xlink:href="#e"/>
  <use x="272.972656" y="644" xlink:href="#b"/>
  <use x="286.78125" y="644" xlink:href="#t"/>
  <use x="296.378906" y="644" xlink:href="#h"/>
  <use x="325.554688" y="644" xlink:href="#a"/>
  <use x="354.292969" y="644" xlink:href="#s"/>
  <use x="364.710938" y="644" xlink:href="#g"/>
  <use x="381.308594" y="644" xlink:href="#c"/>
  <use x="400.546875" y="644" xlink:href="#f"/>
  <use x="420.476562" y="644" xlink:href="#r"/>
  <use x="70" y="672" xlink:href="#q"/>
  <use x="82.183594" y="672" xlink:href="#b"/>
  <use x="95.992188" y="672" xlink:href="#c"/>
  <use x="115.226562" y="672" xlink:href="#h"/>
  <use x="154.152344" y="672" xlink:href="#d"/>
  <use x="167.535156" y="672" xlink:href="#p"/>
  <use x="187.46875" y="672" xlink:href="#a"/>
  <use x="216.207031" y="672" xlink:href="#o"/>
  <use x="239.640625" y="672" xlink:href="#c"/>
  <use x="258.878906" y="672" xlink:href="#n"/>
  <use x="278.8125" y="672" xlink:href="#f"/>
  <use x="308.492188" y="672" xlink:href="#e"/>
  <use x="329.015625" y="672" xlink:href="#b"/>
  <use x="342.820312" y="672" xlink:href="#c"/>
  <use x="362.058594" y="672" xlink:href="#m"/>
  <use x="371.65625" y="672" xlink:href="#a"/>
  <use x="390.648438" y="672" xlink:href="#g"/>
  <use x="407.242188" y="672" xlink:href="#d"/>
 </g>
</svg>