<svg xmlns="http://www.w3.org/2000/svg" width="171.626" height="166.33" viewBox="0 0 171.626 166.33">
  <g id="VA_brand_VA-icon3" transform="translate(0)">
    <g id="Group_17" data-name="Group 17" transform="translate(0)">
      <g id="Group_16" data-name="Group 16">
        <g id="Group_15" data-name="Group 15">
          <path id="Path_22" data-name="Path 22" d="M1.836,84.067c15.55-26.639,36.42-49.275,59.335-69.288C64.991,11.6,68.81,8.43,72.629,5.394l3-2.208.682-.552a12.846,12.846,0,0,1,14.6-.69c27.417,15.6,52.924,36.024,69.975,63.215a127.478,127.478,0,0,1,7.366,13.388L169.885,82a18.446,18.446,0,0,1,1.637,9.8,16.1,16.1,0,0,1-2.455,7.039l-1.091,1.656c-3.41,5.383-7.093,10.628-10.912,15.6-18.687,23.6-44.195,42.511-73.248,50.241-18.96-6.349-36.01-18.081-50.333-32.022A227.8,227.8,0,0,1,1.291,94.833,10.229,10.229,0,0,1,1.836,84.067Z" transform="translate(-0.014 0)" fill="#e2b1a1"/>
        </g>
      </g>
    </g>
  </g>
</svg>
