<svg id="VA_brand_VA-icon3" xmlns="http://www.w3.org/2000/svg" width="171.626" height="166.33" viewBox="0 0 171.626 166.33">
  <g id="Group_17" data-name="Group 17" transform="translate(0)">
    <g id="Group_16" data-name="Group 16">
      <g id="Group_15" data-name="Group 15">
        <path id="Path_22" data-name="Path 22" d="M169.817,84.067c-15.55-26.639-36.42-49.275-59.335-69.288-3.819-3.175-7.639-6.349-11.458-9.386l-3-2.208-.682-.552a12.846,12.846,0,0,0-14.6-.69C53.329,17.54,27.821,37.967,10.771,65.158A127.48,127.48,0,0,0,3.405,78.546L1.768,82A18.446,18.446,0,0,0,.131,91.8a16.1,16.1,0,0,0,2.455,7.039l1.091,1.656c3.41,5.383,7.093,10.628,10.912,15.6,18.687,23.6,44.195,42.511,73.248,50.241,18.96-6.349,36.01-18.081,50.333-32.022a227.8,227.8,0,0,0,32.191-39.475A10.229,10.229,0,0,0,169.817,84.067Z" transform="translate(-0.014 0)" fill="#dfa4a8"/>
      </g>
    </g>
  </g>
</svg>
