<?xml version="1.0" encoding="utf-8"?>
<!-- Generator: Adobe Illustrator 27.1.1, SVG Export Plug-In . SVG Version: 6.00 Build 0)  -->
<svg version="1.1" id="Layer_1" xmlns="http://www.w3.org/2000/svg" xmlns:xlink="http://www.w3.org/1999/xlink" x="0px" y="0px"
	 viewBox="0 0 125.8 120.6" style="enable-background:new 0 0 125.8 120.6;" xml:space="preserve">
<style type="text/css">
	.st0{fill:#FCFCEE;}
	.st1{fill:#DFA4A8;}
	.st2{fill:#520045;}
	.st3{fill:#8D1634;}
	.st4{fill:#EFD2D4;}
	.st5{fill:#290023;}
	.st6{fill:#FFFFFF;}
	.st7{fill:#660055;}
	.st8{fill:#E2B1A1;}
	.st9{fill:#AF1B3F;}
	.st10{fill:none;stroke:#EFD2D4;stroke-miterlimit:10;}
	.st11{fill:none;}
	.st12{fill:none;stroke:#162722;stroke-miterlimit:10;}
	.st13{clip-path:url(#SVGID_00000104697634148695247590000016677816046750727350_);}
	.st14{enable-background:new    ;}
</style>
<g>
	<g>
		<g>
			<g>
				<path class="st2" d="M124.5,59.6C113.1,78.9,97.8,95.3,81,109.8c-2.8,2.3-5.6,4.6-8.4,6.8l-2.2,1.6l-0.5,0.4
					c-3,2.4-7.5,2.5-10.7,0.5C39.1,107.8,20.4,93,7.9,73.3c-1.9-3-3.9-6.5-5.4-9.7l-1.2-2.5c-1-2.1-1.5-4.7-1.2-7.1
					c0.2-1.8,0.8-3.6,1.8-5.1l0.8-1.2c2.5-3.9,5.2-7.7,8-11.3C24.4,19.3,43.1,5.6,64.4,0c13.9,4.6,26.4,13.1,36.9,23.2
					c9,8.6,16.8,18.3,23.6,28.6C126.3,54.2,126.1,57.3,124.5,59.6z"/>
			</g>
		</g>
	</g>
	<g>
		<g>
			<g>
				<path class="st1" d="M62.9,69.7c0-0.2,0.3-0.3,0.4-0.4c0.1-0.2-0.2-0.4-0.4-0.5l0,0c0,0,0.1,0,0.1,0c0,0,0,0,0,0c0,0,0,0-0.1,0
					l0.1-0.3c0.6,0.4,1.1,1,1.6,1.5c-0.4,0-1,0-1.3,0c0,0-0.6-0.6-0.6-0.6l0.4-0.2c0,0.3,0,1.2-0.1,1.6c-0.2-0.2-0.6-0.7-0.8-0.9
					l0.1,0l-0.5,0l0.1-0.3c0.3,0.4,0.7,0.8,1,1.1l0,0.1c0,0,0,0,0,0c0,0,0,0-0.1,0c0,0,0,0,0,0c-0.2-0.2-0.6-0.5-0.3-0.8
					C62.6,69.9,62.9,69.9,62.9,69.7L62.9,69.7z M62.9,69.7c0,0.2-0.3,0.3-0.4,0.4c-0.2,0.2,0.1,0.5,0.3,0.6c0,0,0.1,0.1,0,0l0,0.1
					c-0.5-0.4-0.9-0.9-1.4-1.3c0.2,0,0.7,0,1,0c0,0,0.6,0.6,0.6,0.6l-0.3,0.1l0-1.1l0-0.5l0.4,0.4l0.6,0.5l-0.2-0.1l0.5,0l-0.2,0.5
					c-0.4-0.4-0.7-0.7-1-1.2l0.1-0.3c-0.1,0,0,0,0,0c0.1,0,0.2,0,0.2,0c0.2,0.2,0.4,0.4,0.4,0.7C63.5,69.4,62.9,69.3,62.9,69.7
					L62.9,69.7z"/>
			</g>
		</g>
		<g>
			<g>
				<path class="st1" d="M54,49.6c-1.1,3.3,1.1,7-1,10.1c-0.8,1.3-4.2,2.6-4.3,0.2C48.8,56,50.7,52,54,49.6L54,49.6z M53.9,49.7
					c-1.7,1.4-3.1,3.3-3.9,5.3c-0.6,1.5-1,3.2-1,4.9c0,0.6,0.3,0.9,0.8,0.9c1,0,2.1-0.6,2.7-1.4C54.4,56.6,52.3,52.7,53.9,49.7
					L53.9,49.7z"/>
			</g>
		</g>
		<g>
			<g>
				<path class="st1" d="M49,43.8c-0.7,2.4-3.8,3.3-4.3,5.8c-0.2,0.7,0.1,1.6,0.6,2.1c0.3,0.2,0.6,0.2,0.8,0c0.9-0.8,1.5-1.9,2-3
					C48.9,47.1,49.1,45.4,49,43.8L49,43.8z M49,43.8c0.5,2.9-0.6,6-2.6,8.1c-1.4,1.2-2.5-1.3-2.2-2.4C44.7,46.7,47.8,46,49,43.8
					L49,43.8z"/>
			</g>
		</g>
		<g>
			<g>
				<path class="st1" d="M40.1,37.4c0.4,2.5,3.1,4.3,2.6,7c-0.1,1.2-2,3.1-2.9,1.5C38.7,43.2,38.6,39.9,40.1,37.4L40.1,37.4z
					 M40.1,37.4c-0.7,1.5-1,3.2-0.8,4.8c0.1,1.2,0.4,2.5,0.9,3.5c0.2,0.4,0.4,0.5,0.8,0.3c0.6-0.3,1.2-1,1.3-1.7
					C42.5,41.8,39.9,39.9,40.1,37.4L40.1,37.4z"/>
			</g>
		</g>
		<g>
			<g>
				<path class="st1" d="M53.9,78.2c1.2-2.4-0.4-5.9,2.2-7.7c0.8-0.4,2-0.8,2.6,0c0.3,0.7,0,1.4-0.2,2c-0.3,0.8-0.6,1.6-1,2.3
					C56.7,76.2,55.5,77.4,53.9,78.2L53.9,78.2z M54,78.1c1.4-0.9,2.6-2.1,3.3-3.5c0.5-1.1,1-2.3,1.2-3.4c0-0.4-0.1-0.6-0.5-0.7
					c-0.7-0.1-1.6,0.2-2,0.8C54.4,73.1,55.5,76.2,54,78.1L54,78.1z"/>
			</g>
		</g>
		<g>
			<g>
				<path class="st1" d="M41,70.8c3.2-1.3,6.8,1.2,9.9-0.4c0.9-0.5,1.6-1.5,1.7-2.5c0-0.5-0.3-0.9-0.8-0.9c-1.6-0.2-3.4,0.1-5,0.5
					C44.6,68,42.6,69.3,41,70.8L41,70.8z M40.9,70.8c2.7-3,6.8-4.4,10.8-4.2c2.4,0.4,0.7,3.6-0.7,4.3C47.8,72.7,44.3,70.1,40.9,70.8
					L40.9,70.8z"/>
			</g>
		</g>
		<g>
			<g>
				<path class="st1" d="M39.2,62.5c2.6-0.2,4.5-2.7,7.2-2.1c1.2,0.2,3,2.3,1.3,3C44.9,64.4,41.6,64.2,39.2,62.5L39.2,62.5z
					 M39.2,62.5c1.4,0.8,3.1,1.2,4.7,1.2c1.2,0,2.5-0.2,3.6-0.6c0.4-0.2,0.5-0.4,0.4-0.8c-0.2-0.7-0.9-1.3-1.6-1.4
					C43.8,60.4,41.7,62.9,39.2,62.5L39.2,62.5z"/>
			</g>
		</g>
		<g>
			<g>
				<path class="st1" d="M37,51.8c2.3,0.9,3,4,5.4,4.7c0.7,0.2,1.6,0,2.1-0.4c0.3-0.3,0.3-0.5,0-0.8c-0.8-0.9-1.8-1.7-2.8-2.3
					C40.3,52.2,38.6,51.8,37,51.8L37,51.8z M37,51.8c3-0.3,5.9,1.1,7.9,3.2c1.1,1.5-1.5,2.4-2.6,2C39.6,56.3,39.1,53.1,37,51.8
					L37,51.8z"/>
			</g>
		</g>
		<g>
			<g>
				<path class="st1" d="M72.6,49c1.6,3-0.5,6.9,1.4,9.8c0.6,0.9,1.7,1.4,2.7,1.4c0.5,0,0.8-0.4,0.8-0.9c0-1.6-0.5-3.3-1-4.9
					C75.7,52.3,74.3,50.4,72.6,49L72.6,49z M72.5,49c3.3,2.3,5.2,6.3,5.4,10.3c-0.1,2.4-3.5,1.1-4.3-0.2C71.5,56,73.7,52.3,72.5,49
					L72.5,49z"/>
			</g>
		</g>
		<g>
			<g>
				<path class="st1" d="M77.5,43.1c1.2,2.3,4.3,3,4.8,5.7c0.3,1.2-0.9,3.6-2.2,2.4C78.2,49.1,77,46,77.5,43.1L77.5,43.1z
					 M77.5,43.2c-0.1,1.6,0.1,3.3,0.8,4.8c0.5,1.1,1.2,2.2,2,3c0.3,0.3,0.6,0.3,0.8,0c0.5-0.5,0.8-1.4,0.6-2.1
					C81.3,46.5,78.2,45.5,77.5,43.2L77.5,43.2z"/>
			</g>
		</g>
		<g>
			<g>
				<path class="st1" d="M86.4,36.8c0.2,2.5-2.4,4.4-2.1,6.9c0.1,0.7,0.6,1.4,1.3,1.7c0.3,0.1,0.6,0,0.8-0.3
					c0.5-1.1,0.8-2.3,0.9-3.5C87.4,39.9,87.1,38.3,86.4,36.8L86.4,36.8z M86.4,36.7c1.3,2.2,1.4,4.9,0.7,7.3
					c-0.2,0.6-0.3,1.4-0.9,1.7c-1.1,0.3-2.2-1.1-2.4-2.1C83.4,41,86.1,39.3,86.4,36.7L86.4,36.7z"/>
			</g>
		</g>
		<g>
			<g>
				<path class="st1" d="M72.5,77.5c-1.5-2-0.4-5-2-6.9c-0.5-0.6-1.3-0.9-2-0.8c-0.4,0.1-0.5,0.3-0.5,0.7c0.1,1.2,0.6,2.4,1.2,3.4
					C70,75.4,71.2,76.6,72.5,77.5L72.5,77.5z M72.6,77.5c-1.5-0.8-2.7-2-3.6-3.4c-0.6-1.1-1.1-2.3-1.3-3.5c0-0.2,0-0.5,0.1-0.7
					c0.6-0.8,1.8-0.4,2.6,0C73,71.6,71.4,75.1,72.6,77.5L72.6,77.5z"/>
			</g>
		</g>
		<g>
			<g>
				<path class="st1" d="M85.6,70.2c-3.4-0.8-6.9,1.8-10.1,0.1c-1.4-0.7-3-3.9-0.7-4.3C78.7,65.7,82.9,67.2,85.6,70.2L85.6,70.2z
					 M85.5,70.2c-1.6-1.6-3.6-2.8-5.7-3.3c-1.6-0.4-3.3-0.7-5-0.5c-0.6,0.1-0.9,0.4-0.8,0.9c0.1,1,0.8,2,1.7,2.5
					C78.8,71.4,82.4,68.9,85.5,70.2L85.5,70.2z"/>
			</g>
		</g>
		<g>
			<g>
				<path class="st1" d="M87.3,61.9c-2.5,0.4-4.6-2.1-7-1.6c-0.7,0.1-1.4,0.7-1.6,1.4c-0.1,0.4,0,0.6,0.4,0.8
					c1.1,0.4,2.4,0.6,3.6,0.6C84.2,63.1,85.9,62.6,87.3,61.9L87.3,61.9z M87.4,61.8c-2.5,1.7-5.7,1.9-8.5,0.9
					c-1.7-0.7,0.1-2.8,1.3-3C82.9,59.1,84.8,61.7,87.4,61.8L87.4,61.8z"/>
			</g>
		</g>
		<g>
			<g>
				<path class="st1" d="M89.6,51.1c-2.2,1.4-2.7,4.5-5.3,5.3c-1.1,0.4-3.7-0.6-2.6-2C83.6,52.2,86.6,50.8,89.6,51.1L89.6,51.1z
					 M89.5,51.1c-1.6,0-3.3,0.4-4.7,1.2c-1,0.6-2.1,1.3-2.8,2.3c-0.2,0.3-0.2,0.6,0,0.8c0.5,0.5,1.4,0.7,2.1,0.4
					C86.5,55.2,87.2,52,89.5,51.1L89.5,51.1z"/>
			</g>
		</g>
		<g>
			<g>
				<g>
					<path class="st4" d="M63,43.9c1.2,8.3,1.1,16.7,0.8,25.1c-0.2,7.4-0.5,17.8-0.8,25.1c0,0.1-0.1,0.1-0.1,0.1
						c-0.1,0-0.1,0-0.1-0.1C62.5,86.8,62.2,76.3,62,69c-0.2-6.3-0.4-12.6,0.1-18.8c0.2-2.1,0.4-4.2,0.7-6.3
						C62.8,43.7,63,43.7,63,43.9L63,43.9z"/>
				</g>
			</g>
			<g>
				<g>
					<path class="st4" d="M27.7,44.6c5.7-2.4,12.8,0.1,16.2,5.3c3.3,4.8,4.2,11.2,8.7,15.1c5.7,4.7,14.9,4.9,20.6,0.1
						c4.4-4,5.3-10.4,8.6-15.2c3.4-5.1,10.6-7.6,16.2-5.3c-5.8-1.6-12,1.1-15,6.1c-1.5,2.5-2.4,5.3-3.5,8.1
						c-1.2,2.9-2.6,5.7-4.9,7.9c-3.2,2.9-7.5,4.2-11.7,4.2c-6.4-0.1-12.7-3.4-15.4-9.3c-1.9-3.5-2.7-7.5-4.8-10.8
						C39.8,45.7,33.5,43.1,27.7,44.6L27.7,44.6z"/>
				</g>
			</g>
		</g>
	</g>
</g>
</svg>
