<?xml version="1.0" encoding="utf-8"?>
<!-- Generator: Adobe Illustrator 27.1.1, SVG Export Plug-In . SVG Version: 6.00 Build 0)  -->
<svg version="1.1" id="Layer_1" xmlns="http://www.w3.org/2000/svg" xmlns:xlink="http://www.w3.org/1999/xlink" x="0px" y="0px"
	 viewBox="0 0 125.8 120.6" style="enable-background:new 0 0 125.8 120.6;" xml:space="preserve">
<style type="text/css">
	.st0{fill:#FCFCEE;}
	.st1{fill:#DFA4A8;}
	.st2{fill:#520045;}
	.st3{fill:#8D1634;}
	.st4{fill:#EFD2D4;}
	.st5{fill:#290023;}
	.st6{fill:#FFFFFF;}
	.st7{fill:#660055;}
	.st8{fill:#E2B1A1;}
	.st9{fill:#AF1B3F;}
	.st10{fill:none;stroke:#EFD2D4;stroke-miterlimit:10;}
	.st11{fill:none;}
	.st12{fill:none;stroke:#162722;stroke-miterlimit:10;}
	.st13{clip-path:url(#SVGID_00000044177285576218566840000000588296564109536648_);}
	.st14{enable-background:new    ;}
</style>
<g>
	<g>
		<g>
			<g>
				<path class="st2" d="M124.5,59.6C113.1,78.9,97.8,95.3,81,109.8c-2.8,2.3-5.6,4.6-8.4,6.8l-2.2,1.6l-0.5,0.4
					c-3,2.4-7.5,2.5-10.7,0.5C39.1,107.8,20.4,93,7.9,73.3c-1.9-3-3.9-6.5-5.4-9.7l-1.2-2.5c-1-2.1-1.5-4.7-1.2-7.1
					c0.2-1.8,0.8-3.6,1.8-5.1l0.8-1.2c2.5-3.9,5.2-7.7,8-11.3C24.4,19.3,43.1,5.6,64.4,0c13.9,4.6,26.4,13.1,36.9,23.2
					c9,8.6,16.8,18.3,23.6,28.6C126.3,54.2,126.1,57.3,124.5,59.6z"/>
			</g>
		</g>
	</g>
	<g>
		<g>
			<g>
				<path class="st1" d="M98.5,44.9c0.5,3.5,5.9,3.7,5.9-0.1C104.3,41.5,98.3,41.4,98.5,44.9L98.5,44.9z M98.5,44.9
					c-0.3-4,6.2-4,6.3-0.1C104.6,48.9,99,48.7,98.5,44.9L98.5,44.9z"/>
			</g>
		</g>
		<g>
			<g>
				<path class="st1" d="M27.3,44.9c-0.5-3.5-5.9-3.7-5.9,0.1C21.5,48.3,27.5,48.3,27.3,44.9L27.3,44.9z M27.3,44.8
					c0.3,4-6.2,4-6.3,0.1C21.2,40.8,26.8,41,27.3,44.8L27.3,44.8z"/>
			</g>
		</g>
		<g>
			<g>
				<path class="st1" d="M31.6,56.1c1.5-3.7,7.3-4.6,9.4-0.9c2.2,4.2-1.7,8.4-6.1,7C32.3,61.5,30.5,58.6,31.6,56.1L31.6,56.1z
					 M31.7,56.1c-1,2.4,1.1,4.9,3.4,5.4c3.9,1.2,7.4-2.2,5.5-6C38.8,51.9,33.1,52.5,31.7,56.1L31.7,56.1z"/>
			</g>
		</g>
		<g>
			<g>
				<path class="st1" d="M82.7,36.5c-0.3-3.8-5.7-5.9-8.4-3.1c-2.9,3.1-0.4,7.3,3.6,7.3C80.3,40.9,83,39.1,82.7,36.5L82.7,36.5z
					 M82.7,36.5c0.4,2.7-2.2,5-4.8,5c-4.6,0.2-7.3-5-3.9-8.4C77,30,82.3,32.5,82.7,36.5L82.7,36.5z"/>
			</g>
		</g>
		<g>
			<g>
				<path class="st1" d="M63.4,69.7l0-0.5c4.6-0.1,7.3-4.6,8.8-8.3c1.3-3.3,1.5-6.9,1.6-10.4c0.1-3.4,0.3-6.8,1.5-10.2l0.4,0.2
					c-1.2,3.2-1.3,6.7-1.5,10c-0.1,3.5-0.3,7.1-1.6,10.5C71.1,65,68.2,69.5,63.4,69.7z"/>
			</g>
		</g>
		<g>
			<g>
				<path class="st1" d="M50.1,63.5c-1.5-1.4-6.5-4.9-8.7-5.1l0-0.4c2.3,0.2,7.4,3.7,9,5.2L50.1,63.5z"/>
			</g>
		</g>
		<g>
			<g>
				<path class="st1" d="M91.8,56c2.1,2.9,0,7.7-3.7,7.5c-4.2-0.3-5.5-5.2-2.4-7.8C87.3,54,90.4,53.9,91.8,56L91.8,56z M91.7,56
					c-3.2-3.9-9.4,2-6.4,5.6C89,65.6,94.6,60.2,91.7,56L91.7,56z"/>
			</g>
		</g>
		<g>
			<g>
				<path class="st1" d="M68.8,69.5c-0.3,0-0.6,0-1,0l0-0.4c5,0.3,14.1-2,17.6-6.8l0.3,0.2c-1.6,2.2-4.5,4.1-8.2,5.4
					C74.7,68.9,71.5,69.5,68.8,69.5z"/>
			</g>
		</g>
		<g>
			<g>
				<path class="st1" d="M47.3,42.5c0.3-3.3,4.8-5.3,7.2-2.8c2.7,2.8,0.5,7-3.2,6.8C49.1,46.6,46.9,44.7,47.3,42.5L47.3,42.5z
					 M47.3,42.5c-0.2,4.6,7.7,4.5,7.9,0.1C55.1,37.6,48,37.8,47.3,42.5L47.3,42.5z"/>
			</g>
		</g>
		<g>
			<g>
				<path class="st1" d="M63.1,69.7c-4-0.1-6.3-3.9-7.5-7c-1.1-2.8-1.2-5.7-1.3-8.6c-0.1-2.7-0.2-5.5-1.2-8.2l0.3-0.1
					c1,2.7,1.1,5.6,1.2,8.3c0.1,2.8,0.2,5.7,1.3,8.5c1.2,3,3.4,6.6,7.2,6.8L63.1,69.7z"/>
			</g>
		</g>
		<g>
			<g>
				<g>
					<g>
						<g>
							<path class="st4" d="M63.1,44.1c1.2,8.4,1.2,16.9,0.8,25.3c-0.2,7.4-0.5,18-0.8,25.3c0,0.1-0.1,0.1-0.1,0.1
								c-0.1,0-0.1,0-0.1-0.1c-0.3-7.3-0.6-17.9-0.8-25.3c-0.2-6.3-0.4-12.7,0.1-19c0.2-2.1,0.4-4.2,0.7-6.3
								C62.9,44,63.1,44,63.1,44.1L63.1,44.1z"/>
						</g>
					</g>
				</g>
				<g>
					<g>
						<g>
							<path class="st4" d="M27.5,44.9c5.7-2.4,12.9,0.1,16.4,5.3c3.4,4.8,4.2,11.3,8.8,15.2c5.7,4.8,15,5,20.8,0.1
								c4.4-4.1,5.3-10.5,8.7-15.3c3.4-5.2,10.7-7.7,16.4-5.3c-5.8-1.6-12.1,1.1-15.2,6.1c-1.5,2.5-2.4,5.4-3.5,8.1
								c-1.2,2.9-2.6,5.7-4.9,8c-3.2,2.9-7.6,4.2-11.8,4.3c-6.5-0.1-12.8-3.4-15.6-9.4c-1.9-3.6-2.7-7.5-4.8-10.9
								C39.6,45.9,33.3,43.3,27.5,44.9L27.5,44.9z"/>
						</g>
					</g>
				</g>
			</g>
		</g>
	</g>
</g>
</svg>
