<?xml version="1.0" encoding="utf-8"?>
<!-- Generator: Adobe Illustrator 27.1.1, SVG Export Plug-In . SVG Version: 6.00 Build 0)  -->
<svg version="1.1" id="Layer_1" xmlns="http://www.w3.org/2000/svg" xmlns:xlink="http://www.w3.org/1999/xlink" x="0px" y="0px"
	 viewBox="0 0 125.8 120.6" style="enable-background:new 0 0 125.8 120.6;" xml:space="preserve">
<style type="text/css">
	.st0{fill:#FCFCEE;}
	.st1{fill:#DFA4A8;}
	.st2{fill:#520045;}
	.st3{fill:#8D1634;}
	.st4{fill:#EFD2D4;}
	.st5{fill:#290023;}
	.st6{fill:#FFFFFF;}
	.st7{fill:#660055;}
	.st8{fill:#E2B1A1;}
	.st9{fill:#AF1B3F;}
	.st10{fill:none;stroke:#EFD2D4;stroke-miterlimit:10;}
	.st11{fill:none;}
	.st12{fill:none;stroke:#162722;stroke-miterlimit:10;}
	.st13{clip-path:url(#SVGID_00000112624581814867321950000015322202130762038954_);}
	.st14{enable-background:new    ;}
</style>
<g>
	<g>
		<g>
			<g>
				<path class="st2" d="M124.5,59.6C113.1,78.9,97.8,95.3,81,109.8c-2.8,2.3-5.6,4.6-8.4,6.8l-2.2,1.6l-0.5,0.4
					c-3,2.4-7.5,2.5-10.7,0.5C39.1,107.8,20.4,93,7.9,73.3c-1.9-3-3.9-6.5-5.4-9.7l-1.2-2.5c-1-2.1-1.5-4.7-1.2-7.1
					c0.2-1.8,0.8-3.6,1.8-5.1l0.8-1.2c2.5-3.9,5.2-7.7,8-11.3C24.4,19.3,43.1,5.6,64.4,0c13.9,4.6,26.4,13.1,36.9,23.2
					c9,8.6,16.8,18.3,23.6,28.6C126.3,54.2,126.1,57.3,124.5,59.6z"/>
			</g>
		</g>
	</g>
	<g>
		<g>
			<g>
				<path class="st1" d="M65.7,53.7C69,47.2,74.8,42,81.9,39.8c1.8-0.5,3.6-0.8,5.4-1c5.6-0.5,11.2,0.5,16.7,1.6
					c-1.7,3.2-2.8,6.6-3.6,10.1c-1.6,6.3-2.6,13.1-6.1,18.7c-4.8,8-15.9,12.1-24.6,8C60.6,73,61.8,61.1,65.7,53.7L65.7,53.7z
					 M65.8,53.8c-4.8,9.7-3.9,22.7,9.1,24.1c7.2,0.8,14.8-2.8,18.6-9c3.6-5.5,4.6-12.2,6.2-18.4c0.9-3.4,1.9-6.8,3.6-9.9l0.2,0.4
					c-3.6-0.7-7.1-1.4-10.8-1.6c-3.6-0.3-7.3-0.1-10.8,0.9C74.9,42.1,69,47.2,65.8,53.8L65.8,53.8z"/>
			</g>
		</g>
		<g>
			<g>
				<path class="st1" d="M60,53.8c-3.2-6.5-9.2-11.7-16.2-13.7c-1.7-0.5-3.5-0.8-5.3-0.9c-5.4-0.4-10.9,0.6-16.2,1.7l0.2-0.4
					c1.7,3.1,2.7,6.5,3.6,9.9c1.6,6.3,2.6,12.9,6.2,18.4c3.9,6.2,11.4,9.8,18.6,9C63.9,76.5,64.9,63.5,60,53.8L60,53.8z M60.1,53.7
					c3.9,7.4,5,19.3-3.9,23.5c-8.6,4.1-19.8,0-24.6-8c-3.6-5.6-4.5-12.4-6.1-18.7c-0.9-3.5-1.9-7-3.6-10.1
					c5.5-1.1,11.1-2.1,16.7-1.6c1.8,0.2,3.6,0.5,5.4,1C51,42,56.9,47.2,60.1,53.7L60.1,53.7z"/>
			</g>
		</g>
		<g>
			<g>
				<g>
					<g>
						<path class="st4" d="M63,43.3c1.2,8.4,1.2,16.9,0.8,25.4c-0.2,7.5-0.5,18-0.8,25.4c0,0.1-0.1,0.1-0.1,0.1
							c-0.1,0-0.1,0-0.1-0.1c-0.3-7.3-0.6-18-0.8-25.4c-0.2-6.4-0.4-12.7,0.1-19.1c0.2-2.1,0.4-4.2,0.7-6.4
							C62.8,43.1,63,43.1,63,43.3L63,43.3z"/>
					</g>
				</g>
				<g>
					<g>
						<path class="st4" d="M27.3,44c5.7-2.4,13,0.1,16.4,5.3c3.4,4.9,4.2,11.4,8.8,15.3c5.8,4.8,15.1,5,20.8,0.1
							c4.4-4.1,5.3-10.5,8.7-15.4c3.5-5.2,10.7-7.7,16.4-5.3c-5.8-1.6-12.2,1.1-15.2,6.1c-1.5,2.5-2.4,5.4-3.5,8.2
							c-1.2,2.9-2.6,5.7-4.9,8c-3.2,2.9-7.6,4.2-11.9,4.3c-6.5-0.1-12.8-3.5-15.6-9.4c-1.9-3.6-2.7-7.6-4.8-11
							C39.5,45.1,33.1,42.4,27.3,44L27.3,44z"/>
					</g>
				</g>
			</g>
		</g>
		<g>
			<path class="st1" d="M50.7,43.1c2.7-6.2,7.1-11.5,12-16.2c0,0,0.6-0.5,0.6-0.5l0,0.8c0,2.1,1.7,3.7,2.9,5.3
				c2.9,3.6,8.1,5.7,8.9,10.7c0,0-0.1,0-0.1,0c-0.5-1.6-1.5-3-2.8-4.1c-2.2-2-4.9-3.6-6.8-6c-1.4-1.7-3-3.5-2.9-5.8l0.6,0.3
				c-3.7,3.3-7.1,7.2-9.9,11.3C52.3,40.2,51.5,41.6,50.7,43.1L50.7,43.1L50.7,43.1z"/>
		</g>
	</g>
</g>
</svg>
